<?xml version="1.0" encoding="UTF-8"?>
<svg version="1.1" viewBox="0 0 1024 1024" width="1024" height="1024" xmlns="http://www.w3.org/2000/svg">
<path transform="translate(0)" d="m0 0h1024v1024h-1024z" fill="#334A67"/>
<path transform="translate(0)" d="m0 0h1024v1024h-1024zm493 74-29 2-28 4-28 6-35 10-24 9-27 12-25 13-30 19-14 10-14 11-10 9-11 9-1 3-4 2-13 13v2h-2l-9 11-10 11-13 17-8 11-10 15-8 13-9 16-8 15-9 20-11 29-6 19-8 32-5 27-4 40v54l3 32 5 32 7 29 8 27 13 34 11 24 12 22 9 16 12 18 13 18 8 10 9 11 15 16 7 8 8 8 8 7 13 12 17 13 12 9 12 8 15 9 16 9 27 13 28 11 30 9 25 6 30 5 35 3h37l29-2 33-5 28-6 21-6 31-11 25-11 22-11 15-9 30-20 13-10 28-24 21-21 7-8 11-13 9-12v-2h2l6-9 10-14 6-10 10-17 11-20 9-19 12-30 8-24 8-31 6-31 3-24 1-9 1-20v-37l-2-31-5-33-7-31-4-14-10-30-10-24-16-32-12-20-10-15-10-14-13-16-12-14-16-17-12-12-8-7-13-11-13-10-15-11-20-13-25-14-16-8-23-10-28-10-27-8-36-7-33-4-18-1z" fill="#FDFDFD"/>
<path transform="translate(493,74)" d="m0 0h34l29 2 28 4 30 6 39 12 21 8 20 9 16 8 25 14 25 17 28 22 12 11 8 7 15 15 7 8 10 11 11 14 12 16 10 15 15 25 10 19 9 20 7 17 10 30 9 38 5 30 2 18 1 21v37l-1 20-3 25-5 30-7 29-9 30-12 30-9 20-10 19-13 22-9 14-8 11-5 8h-2l-2 5-18 22-16 17-16 16-11 9-15 13-11 8-30 20-21 12-22 11-25 10-19 7-27 8-28 6-33 5-29 2h-37l-35-3-35-6-31-8-27-9-24-10-29-14-25-15-19-13-18-14-10-9-8-7-16-15-15-16-9-11-8-9-6-8-11-15-15-23-12-21-9-17-12-27-11-29-10-34-5-22-5-32-3-32v-54l4-40 7-36 8-30 9-26 10-24 8-16 12-23 8-13 10-15 10-14 10-13 11-13 10-11 1-2h2l2-4 13-13h2l2-4 11-9 11-10 12-9 17-12 19-12 21-12 27-13 20-8 19-7 32-9 28-6 28-4zm-5 22-30 3-31 5-35 9-24 8-27 11-16 8-21 11-9 6-7 4-10 7-11 8-13 10-15 13-16 15-8 8v2l-3 1-7 8-11 13-10 13-12 17-10 16-9 16-13 25-8 19-11 31-7 25-6 29-3 19-3 37v38h2l-1 4 2 22 3 26 5 23 4 18 4 11 4 13 7 19 1 5 2 1 3 7 3 8h2l1 6 5 10h2l1 5 6 11 2 4 21 6 14 5 15 6 19 8h1l1-8v-11l-10 1-13 3 4-3 18-8 1-1v-10l-2-1-9 4-8 1-4 2v-2l-6-2-8-1 1-4 5-3 4-4v-2l4-2 5-5 1-3h-9l-4 1 1-21 6-2 5-5 5-3v-2h2l3-4-15 1 1-2 1-13 3-5 10-8 2-5h-9l6-12v-10l6-8v-4h-2l6-11 8-15 4 8 6 11 3 5v2l-2 1 2 5 5 6-1 8 6 12v2h-7l1 5 7 7 5 4 1 14 1 4-9-2h-4l1 4 9 8 7 5h2v17l1 5-9-1h-3l3 5 13 10h2l1 4 2 4h-9l-6 3-6-1-11-6-7-3v49l14 5 16 6 9 4 25 13 16 8 20 9 13 5 3-1-2-6 1-6 5-6 9-4 18-3 32-3 15-4 2-3-4-3-24-5-1-3 11-3 9-2 20-2 1-1v-15l-16 1-2 2-4 1-4-33-2-4-1-4-1-3-1-15-1-2h-2l2-17 2-15 1-17 3-14 6-11 2-3v-3h2l7-18 5-10 5-15 5-4 11-5 3-9h2v-3h2v-2l7-2 6-3-1-6-3-3-2-11 1-2v-11l4-7 5-5 6-3 14-3 5-2h8l5 5 7 8 2 6-1 4v7l2 9 1 5-3 13-5 3v3l7 6 1 3 3 3 3 5 11 6 5 6 4 14 2 8 7 21 4 9 5 16 2 18 4 12 1 12 1 1 1 8-4 1v24l-1 4-4 2-2 4-5 2-7 2 4-8v-13h-2l-3 8-4 2v-17l3-10-4-4-3-12-3-6h-3l1 9 1 2 1 11 1 4 1 22 1 4 1 26 1 12 29 6 16 5 16 7 12 7 10 9 4 7-1 12 10-3 28-12 17-9 10-5 5-2 1-2 19-9 11-5 9-3 13-5 1-4v-29l-7-2-19-3-3-2-5-1-3-1 2-4 4-3v-2l5-1 5-6 2-4-14 2 2-5 1-14 2-5 14-10 4-4v-2h-10l-4 2 3-19 10-8 3-4-1-3-6-1 3-9 2-4v-9l6-7-1-7 8-13 4-8v-2h2l2 5 7 14 2 2 1 4h-2l1 5 1 2h2l2 5v5l-1 4h2l1 4 2 5h2l1 5h-9l2 5 2 3h2v2l7 5 1 2 2 16-14-1v2h2v2h2v2l8 6 6 4h2v21l-9-1h-3l1 4 9 9 8 7 2 3-9 1-4 3-6-1-15-5-2-1v10l20 9h3v2l-9-3-10-2h-4v11l15 3 8-1 15-6 5-1v-2l7-1 12-4 6-9 7-13 2-4v-3h2l13-29 8-22 5-15 4-16 6-26 2-12 1-11 1-3 3-31v-41l-3-36-4-26-8-34-11-33-10-24-12-25-12-21-12-18-10-14-18-22-9-10-9-9-7-8h-2l-1-3-8-7-10-9-14-11-11-8-10-7-17-11-25-14-21-10-31-12-18-6-37-9-32-5-24-2z" fill="#282E4B"/>
<path transform="translate(488,96)" d="m0 0h44l24 2 32 5 37 9 24 8 27 11 25 12 24 14 15 10 14 10 14 11 15 13 8 7v2l4 2 14 15 7 7 11 14 10 12 16 23 13 22 14 27 10 24 9 25 7 25 7 33 3 23 2 28v41l-1 10-5-2-16-13-12-11-28-28-10-7-13-6-33-10-16-8-9-7-7-8-12-16-7-11-11-16-16-24-13-19-10-13-4-8-5-11v-2l-7 1-18 27-8 13-3-1-6-16-10-19-5-6-3-5-8-10-14-14-6-4-3-3-19-12-17-7-15-5-17-3-11-1h-19l-24 3-27 9-19 10-14 10-6 4-4 5-6 5-9 11-8 11-8 14-6 13-5 15-2 2-10-18-8-14-3-7-4-2-6 1-8 10-12 17-20 30-7 10-8 11-11 11-9 11-11 13-9 12-11 14-3 3-5-1-16-8-5-2h-9l-9 6-13 12-22 22-9 7-15 8-8 7-6 7-3 1-1-6v-30l3-37 6-35 7-28 12-36 8-19 12-25 9-16 11-18 10-14 8-11 13-16 10-11 2-3h2l2-4 15-15 8-7 10-9 17-13 15-11 9-6 12-7 11-6 16-9 25-11 27-10 29-8 21-5 34-5z" fill="#FDFDFD"/>
<path transform="translate(685,320)" d="m0 0 5 1 5 10 4 10 8 10 10 14 26 39 11 16 13 19 13 13 9 6 14 6 30 9 16 8 8 6 35 35 11 9 12 9 2 2-2 20-1 3-2 19-5 22-2 8-2 10-3 8-4 13-10 27-11 24h-2l-1 6-6 10-6 11-5 3-11 4h-5v2l-9 3-14 5-10-1-10-2v-11l9 1 12 3 2 1v-2l-5-1-18-8v-10l19 7 5-1 4-2 8-1-6-7-12-11-2-2v-3h7l5 1v-21l-5-2-8-6-3-2v-2h-2v-2h-2v-2l14 1-2-16-5-5-3-2v-2h-2l-4-6v-2h9l-1-5h-2l-3-6v-3h-2l1-9-2-5h-2l-2-3v-4h2l-2-5-5-8-3-7-2-5h-2l-2 6-9 16-1 4 1 4-6 7v9l-5 11v2l7 2-2 4-5 5-6 5-3 19 4-2h10l-2 4-10 8-7 5-2 14-1 6-1 3 14-2-5 8-3 3h-4v2l-6 5 1 2 7 2 3 2 19 3 7 2v32l-11 5-9 3-13 5-17 9-3 1-1 2-7 3-17 9-24 11-20 8h-2l1-12-6-9-9-8-19-10-20-7-22-5-11-2-1-12-1-26-1-4-1-22-2-10v-6l-1-1-1-9 4 1 3 7 2 10 4 5-3 9v17l5-3 2-7h2v13l-4 8 7-2 5-2 2-4 4-2 1-4v-24l4-1-1-8-1-1-1-12-4-12-2-18-5-16-4-9-9-27-2-10-4-9-6-5-9-5-3-6-2-1-3-5-5-4 1-4 4-2 3-13-1-5-2-9v-7l1-6 16-10 9-9 13-17 9-10 9-11 10-11 11-16 11-15 14-19 3-4v-7l4-2-4-9-1-5 2-1 5 14 2 1 2-5 7-11 10-15 7-10z" fill="#334A67"/>
<path transform="translate(504,46)" d="m0 0h19l31 2 30 4 26 5 31 8 35 12 24 10 17 8 22 12 15 9 30 20v2l5 2 16 13 8 7 10 9 7 6v2h2v2h2v2l4 2 12 13 4 4v2h2l8 10 9 11 10 13 11 16 10 16 12 21 14 28 11 27 10 30 5 17 8 37 4 28 2 22 1 18v28l-2 32-5 36-7 33-8 29-9 26-11 26-14 29-14 24-7 11-10 15-14 19-11 13-12 14-29 29-11 9-12 10-12 9-17 12-21 13-27 15-24 11-19 8-25 9-32 9-28 6-25 4-31 3h-52l-24-2-38-6-36-9-25-8-24-9-15-6-16-8-22-12-24-15-20-14-11-9-10-8-10-9-8-7-28-28-9-11-13-16-9-12-16-24-13-22-12-23-11-24-11-29-9-29-8-34-6-40-2-24v-57l2-24 4-29 8-37 6-21 8-24 11-27 10-22 7-12 6-11 5-9 9-14 7-10 10-14 10-13 9-11 11-12 7-8 16-16h2l1-3 11-9 11-10 24-18 12-8 11-7 15-9 19-10 23-11 29-11 31-10 28-7 21-4 32-4 11-1zm-11 28-29 2-28 4-28 6-35 10-24 9-27 12-25 13-30 19-14 10-14 11-10 9-11 9-1 3-4 2-13 13v2h-2l-9 11-10 11-13 17-8 11-10 15-8 13-9 16-8 15-9 20-11 29-6 19-8 32-5 27-4 40v54l3 32 5 32 7 29 8 27 13 34 11 24 12 22 9 16 12 18 13 18 8 10 9 11 15 16 7 8 8 8 8 7 13 12 17 13 12 9 12 8 15 9 16 9 27 13 28 11 30 9 25 6 30 5 35 3h37l29-2 33-5 28-6 21-6 31-11 25-11 22-11 15-9 30-20 13-10 28-24 21-21 7-8 11-13 9-12v-2h2l6-9 10-14 6-10 10-17 11-20 9-19 12-30 8-24 8-31 6-31 3-24 1-9 1-20v-37l-2-31-5-33-7-31-4-14-10-30-10-24-16-32-12-20-10-15-10-14-13-16-12-14-16-17-12-12-8-7-13-11-13-10-15-11-20-13-25-14-16-8-23-10-28-10-27-8-36-7-33-4-18-1z" fill="#FDFDFD"/>
<path transform="translate(506,261)" d="m0 0h10l18 2 22 5 20 8 18 11 13 11 8 7 10 12 12 18 9 19 4 13-1 5-22 30-12 17-7 9-10 11-9 11-8 9-9 12-9 10-9 7-8 5h-2l-6-9-6-7-2-1h-8l-12 4-10 2-6 4-5 7-3 14-10-5-19-14-11-9-14-12-12-12-7-11-11-15-16-24-12-19-5-8 1-8 5-16 7-16 8-13 8-11 11-12 10-9 14-10 21-11 22-7 18-3z" fill="#FDFDFD"/>
<path transform="translate(480,38)" d="m0 0h61l36 4 29 5 32 8 36 12 28 11 32 16 14 8 24 15 18 13 12 9 11 9 15 14 5 4 21 21 9 10 18 22 8 11 13 18 15 25 13 24 12 26 10 25 10 32 7 29 5 27 4 33 1 15v52l-2 26-5 35-5 23-8 31-8 24-14 34-12 25-7 13-13 22-10 15-13 18-13 16-8 10-14 15-23 23-5 4h-2v2l-11 9-10 8-17 12-10 7-16 10-24 14-19 9-15 7-20 8-31 11-14 4-30 7-29 5-39 4h-45l-26-2-35-5-27-6-33-9-24-9-13-5-24-11-27-14-13-8-11-7-20-14-15-12-13-11-13-12-14-13-7-8-8-8-9-11-10-12-12-16-18-27-11-19-11-20-11-24-6-15-7-19-10-32-7-30-6-38-3-36v-46l3-35 6-38 9-36 12-36 6-16 9-20 8-17 6-10 5-10 15-24 10-14 12-16 13-16 12-13 7-8 14-14h2l1-3 8-7 10-9 10-8 17-13 13-9 16-10 13-8 22-12 27-12 29-11 22-7 26-7 31-6 30-4zm24 8-25 1-35 4-24 4-25 6-18 5-21 7-31 12-29 14-11 6-11 7-9 5-15 10-14 10-22 18-11 10-3 2v2l-4 2-20 20-7 8-12 14-15 20-8 11-12 18-10 17-11 20-11 24-11 28-5 14-7 25-7 30-4 24-3 24-1 15v57l3 32 6 36 7 30 11 35 11 27 6 14 8 16 9 17 14 23 11 16 8 11 13 16 9 11 11 12 26 26 11 9 8 7 14 11 20 14 19 12 18 10 19 10 21 9 29 11 31 9 30 7 33 5 24 2h52l31-3 36-6 36-9 33-11 19-8 16-7 19-9 24-14 15-9 20-14 18-14 14-12 10-9 25-25 9-11 8-9 12-16 12-17 11-18 10-17 11-21 10-22 11-28 8-25 8-32 4-20 5-36 2-32v-28l-2-30-4-31-6-31-5-20-9-29-10-26-9-20-13-26-9-15-10-16-14-20-8-10-9-11-7-9h-2l-2-4-10-10-6-7h-2v-2h-2v-2h-2l-1-3-8-7-14-13-13-10-8-6h-2v-2l-30-20-24-14-19-10-20-9-29-11-28-9-33-8-38-6-22-2-18-1z" fill="#2E3753"/>
<path transform="translate(561,666)" d="m0 0 4 1 3 7 2 10 4 5-3 9v17l5-3 2-7h2v13l-4 8 7-2 5-2 2-4 4-2 1-4v-24l4-1-1-8-1-1v-10l78 6 37 5 29 6 7 2-2 7 14-2-5 8-3 3h-4v2l-6 5 1 2 7 2 3 2 19 3 7 2v32l-11 5-9 3-13 5-17 9-3 1-1 2-7 3-17 9-24 11-20 8h-2l1-12-6-9-9-8-19-10-20-7-22-5-11-2-1-12-1-26-1-4-1-22-2-10v-6l-1-1z" fill="#FDFDFD"/>
<path transform="translate(421,668)" d="m0 0h1v12h2l1 2 1 15 2 4v5l2 2 4 33 5-2 1-1 16-1v15l-1 1-25 3-13 4h-2l1 3 24 5 4 4-4 3-13 3-39 4-14 3-8 5-3 4-1 6 2 7-6-1-26-11-19-9-12-7-14-7-12-5-13-5-14-5v-49l11 5 10 5 4-1 5-2h9l-3-5v-3l-5-2-9-8v-2l16-4 16-5 29-6 45-7 34-4z" fill="#6B7D9A"/>
<path transform="translate(548,556)" d="m0 0 3 3-11 19v47l3 74-4 4-83-1-3-1-2-4-1-14-1-67 3-5 1-30 7-6 6-4 10-1 7 7h28l2-4 3-2h12l2 4v3l6-1z" fill="#FAFAFB"/>
<path transform="translate(421,668)" d="m0 0h1v12h2l1 2 1 15 2 4v5l2 2 2 15v6l-37-3-19-1h-50l-40 3-38 5v-25l11 5 10 5 4-1 5-2h9l-3-5v-3l-5-2-9-8v-2l16-4 16-5 29-6 45-7 34-4z" fill="#6B7D9A"/>
<path transform="translate(682,338)" d="m0 0 3 1 5 22 4 27 2 18v24h-2l-7-25-5-9v-2h-4l-2 5-8 15-5 11-7 9-6 10-10 13-3 12-2 12-5 5-12 10-5 11-4 11-8 10-5 5-11 10-12 8v-3l4-6 9-12 6-11-9 5-8 7-24 18h-2l2-5 8-13 10-19 6-12 22-22 5-4 3-4h2l2-4 7-8 7-10 1-5-5 1-16 12-2-2 14-18 10-11 1-2h2l2-4 12-21 11-16 8-12 12-19z" fill="#FDFDFD"/>
<path transform="translate(195,471)" d="m0 0h7l14 5 9 3 11 9 8 4 28 11 8 3 18 3 12 5 9 6-1 4-6 4-60 1h-79l-19-1-8-1-24-1 1-6 5-6 18-6 8-7h2l2-4 15-11 13-9z" fill="#FDFDFD"/>
<path transform="translate(652,724)" d="m0 0h56l31 2 31 4 9 1v22l-11 5-9 3-13 5-17 9-3 1-1 2-2-1 1-2-5-1-18-8-16-5-29-7-22-6-14-7-5-3-32-3-4-2 3-2 21-3z" fill="#6B7D9A"/>
<path transform="translate(453,629)" d="m0 0h58l17 1 1 6v21l1 42h-68l-7-1-1-6-1-33z" fill="#2B324E"/>
<path transform="translate(544,135)" d="m0 0h11l13 4 9 7 7 9 3 9v18l-3 11-7 9-9 8-12 4h-12l-9-2-9-5-6-5-5-7-4-14v-11l3-12 6-10 10-8 10-4z" fill="#2C334F"/>
<path transform="translate(627,157)" d="m0 0h15l11 4 8 6 7 8 4 11v14l-3 10-6 10-8 8-11 5-4 1h-13l-10-3-8-5-5-5-5-7-3-8v-16l4-12 7-9 8-7 8-4z" fill="#2B324E"/>
<path transform="translate(597,668)" d="m0 0 78 6 37 5 29 6 7 2-2 7 14-2-5 8-3 3h-4v2l-6 5 1 2 7 2v1h-8l-6-2-45-6-51-5-44-3-1-2v-9l4-1-1-8-1-1z" fill="#6B7D9A"/>
<path transform="translate(453,737)" d="m0 0h3v15l-1 1-25 3-13 4h-2l1 3 24 5 4 4-4 3-13 3-39 4-14 3-8 5-3 4-1 6 2 7-6-1-26-11-19-9-14-8 1-2 18-8 23-7 24-5 16-3 27-7 12-5 7-2 11 1 2-2z" fill="#FDFDFD"/>
<path transform="translate(569,756)" d="m0 0 16 2 24 6 19 8 14 8 10 9 5 8-1 13-24 7-13 3-16 3-15 2h-15l-1-21-1-6-1-30-1-4z" fill="#6B7D9A"/>
<path transform="translate(774,270)" d="m0 0h14l8 3 8 6 6 7 4 8 1 4v12l-4 11-9 10-9 7-11 4h-16l-8-3-9-7-7-10-2-6v-14l4-10 6-8 9-8 7-4z" fill="#2B334F"/>
<path transform="translate(700,440)" d="m0 0 5 5 11 17 9 15 13 27 8 16 10 25 2 8-4-2-14-17-6-7-21-11-6-5-4 5-10 15-12 19-8 13-7 17-10 12-10 13-5 5 1-8 10-27 8-23 8-15 4-7h2l2-5 10-18 6-13 3-8 4-20z" fill="#FDFDFD"/>
<path transform="translate(649,347)" d="m0 0 2 3 4 11 3 2h3l2 3-1 4-20 30-9 16-5 7h-2l-2 4-10 11-12 16h2l17-12 3 1v5l-7 10-7 8-10 10-6 7-8 7-11 11-14 29-6 9-6 10-3-1-3-5-5-4 1-4 4-2 3-13-1-5-2-9v-7l1-6 16-10 9-9 13-17 9-10 9-11 10-11 11-16 11-15 14-19 3-4v-7l4-2-4-9-1-5z" fill="#364C69"/>
<path transform="translate(335,340)" d="m0 0 3 1 12 22 9 21 7 15v2h-2l-18-22h-3l-2 8v16l11 23 8 16 11 23 2 3-1 3-8-7-4-3-19-1-5-1-11 12-14 14-8 10-7 7-2-2 6-17 5-13 11-34 7-22 3-19 4-37z" fill="#FDFDFD"/>
<path transform="translate(464,137)" d="m0 0h10l9 3 7 6 3 8v7l-3 6-4 5 9 4 4 4 2 6v10l-3 7-5 5-10 5-11 2-26 2 1-8v-9l-4-37-3-15-3-5v-2l2-1z" fill="#2B334F"/>
<path transform="translate(455,752)" d="m0 0 1 2-1 4-1 22-2 9-4 9-1 26-15-1-35-7-17-4-15-4-3-3-1-8 3-6 6-5 11-4 25-3 21-2 15-4 1-2-7-3-20-4-1-4 15-5z" fill="#6B7D9A"/>
<path transform="translate(329,821)" d="m0 0 19 9 16 8 8 6 5 7 1 3v8l-4 8-8 6-3 1h-10l9 30 2 5-9-3-10-5-2-2-5-26-2-4-7-3h-3l-7 17v6l-6-2-15-8 1-3 7-5 8-14 14-28z" fill="#FDFDFD"/>
<path transform="translate(318,184)" d="m0 0 2 1 4 15 10 15 9 14 10 14 5 5 2 3-15 10-4 1-2-9-10-17-2-1-11 7-10 7 1 4 10 14 7 6-5 5-11 8-3-1-3-11-9-14-22-32-7-5 1-3 11-7 4-3h3l3 10 6 10 4 6v2l7-4 16-11-2-5-7-11-5-6-5-3v-2l16-10z" fill="#2B334F"/>
<path transform="translate(511,720)" d="m0 0 3 1 4 10 7 27 2 8 2 7-1 6v10l3 25 1 5-28 1h-17l2-36 5-13 5-21 7-18 3-10z" fill="#6B7D9A"/>
<path transform="translate(697,814)" d="m0 0h3l3 12 8 16 16 27 3 4-1 3-7 3-7-1-46-14-9-3 8 16 9 15 6 4-3 4-15 7h-3l-1-11-9-19-7-12-6-11-9-6 1-2 11-5 8 1 50 15h3l-10-18-8-11-4-3v-2l11-6z" fill="#FDFDFD"/>
<path transform="translate(416,702)" d="m0 0h11l2 5 2 7 1 15-37-3-19-1h-50l-40 3-38 5v-8l18-4 36-6 43-6 49-5 6-1z" fill="#FDFDFD"/>
<path transform="translate(701,187)" d="m0 0 4 1 12 9 3 3-9 7-9 10-3 4 11-1 20-4 2-1 1-3 4 1 10 7 4 4-1 4-33 4h-7l-1 28v23l-5-2-10-7-2-3 1-17 2-25-8 7-10 14-2 8-6-2-10-8-3-4 8-5 5-5 14-18 9-11 6-9z" fill="#2C3450"/>
<path transform="translate(566,860)" d="m0 0 4 2 9 11 18 24 13 16 8 7v2l-20 4h-3l-3-9-3-5v-2l-24 4-9 1-3 10-1 7-10 2h-11l6-11 5-11 7-20 12-31z" fill="#FDFDFD"/>
<path transform="translate(376,157)" d="m0 0 4 1 7 14-2 1h-11l-12 5h-3l6 12 1 6 12-5 7-5h2l5 13v4l-9 1-10 5 7 15v2l11-4 8-5 7-6h2l2 17-3 3-16 6-19 8h-4l-3-14-11-26-7-15-4-8-5-6v-2l24-11z" fill="#2C3350"/>
<path transform="translate(338,537)" d="m0 0 8 2 6-1-2 4-3 1 9 11 5 5 6 2h2l-1 5 9 1 10-4 5-1 1 3-4 6-15 15-1 9-2 3h-2l-1-6-5 3-16 13-8 7-4 3h-3l3-10-9 2 3-5-4-4 2-4 4-2 4 3 5 1 2-4 6-8 1-2h2v-3h-3l1-4h2l-7-14-1-3-4 2-8 8-8 6-2-1 8-17-16 9-6 4h-2l2-4 4-5 5-4 7-8 3-1 2-4 8-7z" fill="#FDFDFD"/>
<path transform="translate(421,668)" d="m0 0h1v14l-3 1-45 5-36 6-34 7-22 6-9-7-3-3v-2l16-4 16-5 29-6 45-7 34-4z" fill="#FDFDFD"/>
<path transform="translate(480,582)" d="m0 0h49l1 4h-11v2h11v22l-1 1h-73l1-28z" fill="#2A314D"/>
<path transform="translate(543,149)" d="m0 0h13l8 5 5 6 2 5v16l-4 10-5 5-4 3-3 1h-13l-9-6-5-8-1-5v-10l3-10 6-8z" fill="#FDFDFD"/>
<path transform="translate(632,170)" d="m0 0h8l8 4 5 5 4 9-1 11-4 10-7 8-9 4h-8l-10-5-4-5-2-5-1-9 3-11 5-8 7-6z" fill="#FDFDFD"/>
<path transform="translate(419,856)" d="m0 0 10 1 14 3v9l8 20v2l4-1 2-4 5-6 5-5 5-6 1-6 16 2 6 1-2 4-9 7-26 26-2 9v19l-13-1-9-2 1-4 4-9 2-9v-7l-8-16-12-22-2-2z" fill="#FDFDFD"/>
<path transform="translate(250,232)" d="m0 0 5 2 9 7v3l-9 3-5 5h-2l1 4 29 29 11 9 5 2-2 5-8 8-4 3h-3l-4-9-12-13-22-22v-2l-4 1-8 8-3 7-3-1-7-11 2-4 10-10 5-4 6-7 6-5z" fill="#2C3450"/>
<path transform="translate(836,326)" d="m0 0h2l8 18 9 20-16 5h-2l1-9-5-12-2-1-14 7 6 12 1 3h2l1 3-5 3-10 3h-3v-9l-4-8v-2l-21 10-5 5-3-1-6-15v-3l15-4 30-13 17-9z" fill="#2C3450"/>
<path transform="translate(597,668)" d="m0 0 78 6 37 5 29 6 7 2-2 7 14-2-2 4-7 6-9-2-28-7-27-5-35-5-54-6-1-1z" fill="#FDFDFD"/>
<path transform="translate(783,284)" d="m0 0 8 2 5 3v2h2l4 8-1 9-4 6-9 9-8 4-4 1h-9l-10-6-4-8v-7l4-8 6-7 7-5 5-2z" fill="#FDFDFD"/>
<path transform="translate(315,373)" d="m0 0 2 1v8l-5 26-5 17-6 14-10 17h-2l-2 4 1-13 6-21 1-9-7 4-8 9-7 10-10 16-8 12-2 1 3-10 6-16 8-10 5-9h2l2-5 8-11 9-13 10-13 6-7z" fill="#FDFDFD"/>
<path transform="translate(855,527)" d="m0 0h3l1 3v11l-2 8-5 7-1 4 3 6v5h-2v-2l-4-2-4 1-5 5 1 7-4 5h-2l-2-8-9 5-10 5-6 2h-6l-1-3 3-5 9-10 9-9 2-4-7-2v-2h2l1-3 2-1h11l19-19z" fill="#FDFDFD"/>
<path transform="translate(373,419)" d="m0 0h2l8 15 14 24 7 10 14 15 7 7 9 14 11 14 4 5v2l-5-2-20-12-8-10-9-10-9-11-12-16-6-18-7-23z" fill="#FDFDFD"/>
<path transform="translate(512,256)" d="m0 0h19l17 3 21 7 16 8 17 11 4 4 8 7 12 12 7 9 3 5 7 11 6 12v6l4 9v2h-2l-1 4v-2h-2l-4-12-9-19-14-20-12-13-11-9-10-7-14-8-21-8-24-5-11-2v-2l-6-2z" fill="#35435F"/>
<path transform="translate(368,736)" d="m0 0h12v2l-9 2-26 4-33 6-24 4-26 6-9-1-5-2v-8l36-6 32-4 26-2z" fill="#FDFDFD"/>
<path transform="translate(658,736)" d="m0 0h16l35 2 38 5 27 5 5 2-1 4-13 5-10-2-37-8-57-10-3-1z" fill="#FDFDFD"/>
<path transform="translate(501,255)" d="m0 0h19l-4 2 4 2 3 3h-17l-26 3-20 6-12 5-15 8-11 8-8 7-4-2-5 3-2-1 6-5 5-5 14-10 14-8 11-5 24-8z" fill="#354360"/>
<path transform="translate(229,711)" d="m0 0 2 1v10l-16 8-7 3v1l18-4h5v11l-1 8-13-5-19-8-8-3 1-3 17-9z" fill="#FDFDFD"/>
<path transform="translate(739,455)" d="m0 0 4 2 5 5v2l4 2 11 11 7 8 18 18 8 7 8 10 6 11 3 4v2l-5-2-8-7-5-5-10-11-7-10-16-12-5-5-13-21-5-8z" fill="#FDFDFD"/>
<path transform="translate(796,710)" d="m0 0 19 7 13 7 10 6v2l-16 6-6 2-10-1-10-2v-11l9 1 12 3 2 1v-2l-5-1-18-8z" fill="#FDFDFD"/>
<path transform="translate(511,720)" d="m0 0 3 1 4 10 6 23v3l-10 3-8-1-8-2 1-7 7-18 3-10z" fill="#FDFDFD"/>
<path transform="translate(410,296)" d="m0 0 3 1-2 4-9 9-9 12-7 11-8 16-5 13-3 11h-3v-3l-4 2-2-2-2-4h-3l-1-6 4 2 5 4 7-20 10-19 10-14 11-13z" fill="#323D59"/>
<path transform="translate(446,701)" d="m0 0 6 1 3 7 3 2-1 22-14-2-5-1-2-13v-5l2-1 2-9z" fill="#FDFDFD"/>
<path transform="translate(819,411)" d="m0 0h17l36 2v2l-16 8-24-1-28-2 3-3z" fill="#3A4F6C"/>
<path transform="translate(341,840)" d="m0 0 5 1 12 6 4 5v7l-5 6-2 1h-8l-16-7 5-10z" fill="#2C3450"/>
<path transform="translate(165,415)" d="m0 0 35 1 16 1-4 4-12 6-17-1-20-4-11-4-1-2z" fill="#384D6A"/>
<path transform="translate(173,380)" d="m0 0h26l34 2-1 3-12 6-1 1-14-1-17-2-16-7z" fill="#3A4E6B"/>
<path transform="translate(466,181)" d="m0 0h12l5 3 2 3 1 6-3 5-5 4-3 1h-12l-2-16v-5z" fill="#FDFDFD"/>
<path transform="translate(468,643)" d="m0 0 6 1 1 4h16l15 1 1-4 1-1h8l2 4 6 2v2l-6 1-1 5h-9l-2-6h-29l-2 1-1 5h-8l-2-1v-6l-5-1v-2h3l2-4z" fill="#FDFDFD"/>
<path transform="translate(534,582)" d="m0 0h2v13l-1 23-1 2-81-1 1-4 78-1z" fill="#485C79"/>
<path transform="translate(460,150)" d="m0 0h10l5 2 3 6-1 7-4 4-7 2h-6l-1-1-2-19z" fill="#FDFDFD"/>
<path transform="translate(533,629)" d="m0 0h4v68l-1 2-3-1-1-7v-61z" fill="#333E5A"/>
<path transform="translate(501,255)" d="m0 0h19l-4 2 4 2 3 3h-17l-26 3-12 3v-2l4-4-2-2 14-3z" fill="#3E5370"/>
<path transform="translate(566,881)" d="m0 0 4 2 11 16v2l-16 3h-6l3-11z" fill="#303955"/>
<path transform="translate(659,387)" d="m0 0h2l-1 9-5 14-5 8h-2l-1 3h-3l2-16 2-7z" fill="#3B506D"/>
<path transform="translate(151,497)" d="m0 0 2 2 3 2-10 8-18 6-5 6-5-2-2-2 7-6 15-8 6-4-1 4 5-4h2z" fill="#3A4D6A"/>
<path transform="translate(774,821)" d="m0 0 1 2-10 18-7 3-11 3-4-1 10-9 17-13z" fill="#FDFDFD"/>
<path transform="translate(252,822)" d="m0 0 9 6 9 7 11 10 2 1v2l-16-4-5-2-6-10-4-8z" fill="#FDFDFD"/>
<path transform="translate(635,326)" d="m0 0h4l10 19v6l4 9v2h-2l-1 4v-2h-2l-4-12-9-19 1-4z" fill="#323E5B"/>
<path transform="translate(467,261)" d="m0 0h7l-2 4-4 1v2l-18 7-10 5h-2l1-5 5-5 14-6z" fill="#31405C"/>
<path transform="translate(248,708)" d="m0 0 11 5 10 5 3 1v2l-20 4h-4z" fill="#6B7D9A"/>
<path transform="translate(561,666)" d="m0 0 4 1 3 7 2 10 4 5-3 9h-3l-1 16h-1l-1-22-2-10v-6l-1-1z" fill="#6C7E9B"/>
<path transform="translate(375,344)" d="m0 0h2l-1 10-5 16-2 4-2-1v-3l-4 2-2-2-2-4h-3l-1-6 4 2 5 4 4-12 3-3h3z" fill="#323C58"/>
<path transform="translate(534,582)" d="m0 0h2v13l-1 23-1 2-38-2 3-2 29-1 4-1z" fill="#2F3955"/>
<path transform="translate(381,327)" d="m0 0 4 1-1 4 2 1-8 16-2 2 1-7h-2l-1 7-5 2 3-9z" fill="#364562"/>
<path transform="translate(512,256)" d="m0 0h19l10 2 3 2v2l-5 1h-10l-11-2v-2l-6-2z" fill="#2D3653"/>
<path transform="translate(617,300)" d="m0 0 7 6 9 11 3 5 2 4-2 2v3l-2 1-8-12 1-6v-2l-4 1v-5l-2-1-5-5z" fill="#323D59"/>
<path transform="translate(438,730)" d="m0 0 12 1 7 2v12h-1v-8l-3 1-14 1z" fill="#6C7E9B"/>
<path transform="translate(776,708)" d="m0 0h3v13l-17-3-1-2 12-6z" fill="#8594AC"/>
<path transform="translate(541,258)" d="m0 0 9 2 10 3-3 4h2v2l3 1-6-1-22-5v-1l10-1v-2l-3-1z" fill="#394764"/>
<path transform="translate(610,294)" d="m0 0 4 2 3 3v4l5 4 2 5h3l1 6-3 1-6-8-11-12 1-3h2z" fill="#343E5B"/>
<path transform="translate(230,722)" d="m0 0 1 3v5l-24 5 1-3z" fill="#6C7E9B"/>
<path transform="translate(444,688)" d="m0 0 3 1 2 7 2 6h-11l-2-9 4-2z" fill="#6C7E9B"/>
<path transform="translate(558,264)" d="m0 0 8 1 10 5-1 3-6 1-7-3v-2h-3v-2h-2z" fill="#303B57"/>
<path transform="translate(796,737)" d="m0 0 10 1 9 2-4 2-15 5z" fill="#6C7E9B"/>
<path transform="translate(473,622)" d="m0 0 33 1-1 3h-28l-5-1z" fill="#3E4A66"/>
<path transform="translate(467,261)" d="m0 0h7l-2 4-4 1v2h-6l-5 2-5-1 1-3z" fill="#2D3753"/>
<path transform="translate(151,416)" d="m0 0h16l-1 2 10 2v3h-10l-14-5z" fill="#2F3955"/>
<path transform="translate(796,720)" d="m0 0 5 1 18 8v2l-19-4-4-1z" fill="#677996"/>
<path transform="translate(501,255)" d="m0 0h19l-4 2 4 2 3 3-16-1-4-3 1-2z" fill="#445A77"/>
<path transform="translate(410,296)" d="m0 0 3 1-2 4-9 9-4-1 2-5 5-5z" fill="#2D3B58"/>
<path transform="translate(635,326)" d="m0 0h4l2 10 1 4 2-1 3 6v2h-2l-2-3-2 1-6-12 1-4z" fill="#2F3B57"/>
<path transform="translate(491,256)" d="m0 0h13v2l4 2-1 1h-15l-4-2z" fill="#2F3C58"/>
<path transform="translate(416,288)" d="m0 0 4 1-1 2-1 4-5 4-1-2-6 2h-3l6-5 5-5z" fill="#313C59"/>
<path transform="translate(190,165)" d="m0 0 2 1-17 17-7 8-5 5-2-1 8-8 7-8z" fill="#475774"/>
<path transform="translate(534,582)" d="m0 0h2v13l-1 23h-1l-1-13v-12z" fill="#455572"/>
<path transform="translate(450,267)" d="m0 0 3 1 4 1 5-2 4 1-3 2-13 5-4 1-1-2 4-1-1-5z" fill="#3A4F6C"/>
<path transform="translate(467,645)" d="m0 0 5 1 1 9-5 1-2-2v-7z" fill="#333D59"/>
<path transform="translate(402,300)" d="m0 0v3l-2 1zm-3 4m-1 1 1 4 2 1-1 2-5-1 1 3-2 2-7 4 2-5z" fill="#3F506D"/>
<path transform="translate(511,645)" d="m0 0 4 3v7l-1 1h-5v-9z" fill="#35405D"/>
<path transform="translate(541,258)" d="m0 0 9 2 4 2-10 3-10-1v-1l10-1v-2l-3-1z" fill="#3E526E"/>
<path transform="translate(461,585)" d="m0 0h8v2l-6 2v7h-4v-10z" fill="#FDFDFD"/>
<path transform="translate(457,583)" d="m0 0h12v2l-10 1-1 20h-1z" fill="#3D506D"/>
<path transform="translate(450,683)" d="m0 0h1l1 14 1 4-2 1-4-7-1-6-2-1v-2l4 1 1 2z" fill="#384A66"/>
<path transform="translate(647,409)" d="m0 0 2 4h2l1-2-1 5-1 2h-2l-1 3h-3l1-9z" fill="#37425E"/>
<path transform="translate(248,708)" d="m0 0 8 4v3l-8 2z" fill="#FDFDFD"/>
<path transform="translate(617,300)" d="m0 0 7 6 6 8-2 4-1-6-4 1v-5l-2-1-5-5z" fill="#415774"/>
<path transform="translate(150,492)" d="m0 0h2l1 3-4 6h-2l-4 2 2-6 3-1z" fill="#344360"/>
<path transform="translate(639,328)" d="m0 0 3 3 7 15-3-1-3-5-2 1-1-9-2-1z" fill="#3D526F"/>
<path transform="translate(454,615)" d="m0 0h9l8 1 1 2h-18z" fill="#29334F"/>
<path transform="translate(410,296)" d="m0 0 3 1-2 4-3 3-5-2v-2z" fill="#293450"/>
<path transform="translate(151,416)" d="m0 0h12v5l-9-2z" fill="#394B67"/>
<path transform="translate(561,666)" d="m0 0 4 1 3 8h-6z" fill="#FDFDFD"/>
<path transform="translate(627,318)" d="m0 0 6 5 1 2 3 5-3 2-8-12z" fill="#405572"/>
<path transform="translate(462,691)" d="m0 0h5v3l-2 1h-8l-1-3z" fill="#FDFDFD"/>
<path transform="translate(215,387)" d="m0 0 5 2-1 3-14-1v-1l10-1z" fill="#414D6A"/>
<path transform="translate(576,270)" d="m0 0 6 2 3 2v2h-5l-1-2h-3l-2 2-3-2 4-1z" fill="#3F506D"/>
<path transform="translate(807,724)" d="m0 0 12 5v2l-14-3z" fill="#6C7E9B"/>
<path transform="translate(467,574)" d="m0 0h6v1l5 1v2h-12z" fill="#344663"/>
<path transform="translate(355,360)" d="m0 0 4 2 4 4v4l2 1h-3l-2-5-3 1-2-4z" fill="#2E3652"/>
<path transform="translate(610,294)" d="m0 0 3 1 2 4-1 3h-3l-3-3 1-3h2z" fill="#2A3450"/>
<path transform="translate(516,574)" d="m0 0h6l3 2v2h-10z" fill="#2F3B57"/>
<path transform="translate(647,355)" d="m0 0 5 3 1 4h-2l-1 4v-2h-2z" fill="#2C3450"/>
<path transform="translate(372,344)" d="m0 0h3l-1 7-5 2z" fill="#3D4E6B"/>
<path transform="translate(416,288)" d="m0 0 1 2-6 5-2 3-6 2 10-10z" fill="#465976"/>
<path transform="translate(440,272)" d="m0 0m-2 1h2v4l-6 1-1 2-3-1 4-4z" fill="#3D526F"/>
<path transform="translate(517,693)" d="m0 0h9l-1 4-8-1z" fill="#FDFDFD"/>
<path transform="translate(747,689)" d="m0 0h4v3h7v1l-12 1z" fill="#4B607D"/>
<path transform="translate(120,513)" d="m0 0 2 3 2 1-1 4-5-2-2-2z" fill="#3D4F6C"/>
<path transform="translate(208,417)" d="m0 0h8l-4 4-6 2 2-5z" fill="#4F627F"/>
<path transform="translate(380,339)" d="m0 0 2 1-5 11h-1l1-7-2-1z" fill="#3F5572"/>
<path transform="translate(613,296)" d="m0 0 4 3 1 7-2 2-3-4 1-5z" fill="#364561"/>
<path transform="translate(576,273)" d="m0 0h5v6l-5-2zm5 2 4 2-4-1z" fill="#2E3A56"/>
<path transform="translate(283,400)" d="m0 0v3l-3 2-1 4-5 2 1-4z" fill="#303A56"/>
<path transform="translate(443,274)" d="m0 0 3 1v2l-6 3h-2l1-5z" fill="#34415E"/>
<path transform="translate(624,312)" d="m0 0h3l1 6-3 1-2-3z" fill="#303955"/>
<path transform="translate(425,286)" d="m0 0 4 1-10 7-2-3 6-3z" fill="#3D526F"/>
<path transform="translate(527,142)" d="m0 0 2 1-11 11v-3l4-5z" fill="#3F4E6B"/>
</svg>
