<?xml version="1.0" encoding="UTF-8"?>
<svg xmlns="http://www.w3.org/2000/svg" xmlns:xlink="http://www.w3.org/1999/xlink" width="50px" height="50px" viewBox="0 0 50 50" version="1.1">
<g id="surface1">
<rect x="0" y="0" width="50" height="50" style="fill:rgb(20%,29.019609%,40.392157%);fill-opacity:1;stroke:none;"/>
<path style=" stroke:none;fill-rule:nonzero;fill:rgb(99.215686%,99.215686%,99.215686%);fill-opacity:1;" d="M 0 0 L 50 0 L 50 50 L 0 50 Z M 24.070312 3.613281 L 22.65625 3.710938 L 21.289062 3.90625 L 19.921875 4.199219 L 18.210938 4.6875 L 17.039062 5.125 L 15.722656 5.710938 L 14.5 6.347656 L 13.039062 7.273438 L 12.351562 7.765625 L 11.671875 8.300781 L 11.179688 8.742188 L 10.644531 9.179688 L 10.59375 9.328125 L 10.398438 9.421875 L 9.765625 10.058594 L 9.765625 10.15625 L 9.667969 10.15625 L 9.226562 10.695312 L 8.742188 11.230469 L 8.105469 12.0625 L 7.714844 12.597656 L 7.226562 13.328125 L 6.835938 13.964844 L 6.398438 14.746094 L 6.007812 15.476562 L 5.566406 16.453125 L 5.03125 17.871094 L 4.734375 18.796875 L 4.34375 20.359375 L 4.101562 21.679688 L 3.90625 23.632812 L 3.90625 26.269531 L 4.054688 27.832031 L 4.296875 29.394531 L 4.640625 30.8125 L 5.03125 32.128906 L 5.664062 33.789062 L 6.203125 34.960938 L 6.789062 36.035156 L 7.226562 36.816406 L 7.8125 37.695312 L 8.445312 38.574219 L 8.835938 39.0625 L 9.277344 39.601562 L 10.007812 40.382812 L 10.351562 40.773438 L 10.742188 41.164062 L 11.132812 41.503906 L 11.765625 42.089844 L 12.597656 42.726562 L 13.183594 43.164062 L 13.769531 43.554688 L 14.5 43.992188 L 15.28125 44.433594 L 16.601562 45.070312 L 17.96875 45.605469 L 19.433594 46.046875 L 20.65625 46.335938 L 22.117188 46.582031 L 23.828125 46.726562 L 25.632812 46.726562 L 27.050781 46.632812 L 28.664062 46.386719 L 30.03125 46.09375 L 31.054688 45.800781 L 32.570312 45.265625 L 33.789062 44.726562 L 34.863281 44.1875 L 35.59375 43.75 L 37.0625 42.773438 L 37.695312 42.285156 L 39.0625 41.113281 L 40.085938 40.085938 L 40.429688 39.695312 L 40.96875 39.0625 L 41.40625 38.476562 L 41.40625 38.378906 L 41.503906 38.378906 L 41.796875 37.9375 L 42.285156 37.257812 L 42.578125 36.765625 L 43.066406 35.9375 L 43.601562 34.960938 L 44.042969 34.03125 L 44.628906 32.570312 L 45.019531 31.398438 L 45.410156 29.882812 L 45.703125 28.367188 L 45.851562 27.195312 L 45.898438 26.757812 L 45.945312 25.78125 L 45.945312 23.976562 L 45.851562 22.460938 L 45.605469 20.851562 L 45.265625 19.335938 L 45.070312 18.652344 L 44.578125 17.1875 L 44.09375 16.015625 L 43.3125 14.453125 L 42.726562 13.476562 L 42.234375 12.742188 L 41.75 12.0625 L 41.113281 11.28125 L 40.527344 10.59375 L 39.746094 9.765625 L 39.160156 9.179688 L 38.769531 8.835938 L 38.132812 8.300781 L 37.5 7.8125 L 36.765625 7.273438 L 35.789062 6.640625 L 34.570312 5.957031 L 33.789062 5.566406 L 32.664062 5.078125 L 31.296875 4.589844 L 29.980469 4.199219 L 28.222656 3.859375 L 26.609375 3.664062 L 25.734375 3.613281 Z M 24.070312 3.613281 "/>
<path style=" stroke:none;fill-rule:nonzero;fill:rgb(15.686275%,18.039216%,29.411766%);fill-opacity:1;" d="M 24.070312 3.613281 L 25.734375 3.613281 L 27.148438 3.710938 L 28.515625 3.90625 L 29.980469 4.199219 L 31.882812 4.785156 L 32.910156 5.175781 L 33.886719 5.617188 L 34.667969 6.007812 L 35.890625 6.6875 L 37.109375 7.519531 L 38.476562 8.59375 L 39.0625 9.132812 L 39.453125 9.472656 L 40.1875 10.203125 L 40.527344 10.59375 L 41.015625 11.132812 L 41.554688 11.816406 L 42.140625 12.597656 L 42.625 13.328125 L 43.359375 14.550781 L 43.847656 15.476562 L 44.289062 16.453125 L 44.628906 17.285156 L 45.117188 18.75 L 45.554688 20.605469 L 45.800781 22.070312 L 45.898438 22.949219 L 45.945312 23.976562 L 45.945312 25.78125 L 45.898438 26.757812 L 45.75 27.976562 L 45.507812 29.445312 L 45.164062 30.859375 L 44.726562 32.324219 L 44.140625 33.789062 L 43.703125 34.765625 L 43.210938 35.695312 L 42.578125 36.765625 L 42.140625 37.453125 L 41.75 37.988281 L 41.503906 38.378906 L 41.40625 38.378906 L 41.308594 38.625 L 40.429688 39.695312 L 39.648438 40.527344 L 38.867188 41.308594 L 38.328125 41.75 L 37.597656 42.382812 L 37.0625 42.773438 L 35.59375 43.75 L 34.570312 44.335938 L 33.496094 44.875 L 32.273438 45.359375 L 31.347656 45.703125 L 30.03125 46.09375 L 28.664062 46.386719 L 27.050781 46.632812 L 25.632812 46.726562 L 23.828125 46.726562 L 22.117188 46.582031 L 20.410156 46.289062 L 18.898438 45.898438 L 17.578125 45.460938 L 16.40625 44.96875 L 14.992188 44.289062 L 13.769531 43.554688 L 12.84375 42.921875 L 11.960938 42.234375 L 11.476562 41.796875 L 11.085938 41.453125 L 10.304688 40.722656 L 9.570312 39.941406 L 9.132812 39.40625 L 8.742188 38.964844 L 8.445312 38.574219 L 7.910156 37.84375 L 7.179688 36.71875 L 6.59375 35.695312 L 6.152344 34.863281 L 5.566406 33.546875 L 5.03125 32.128906 L 4.539062 30.46875 L 4.296875 29.394531 L 4.054688 27.832031 L 3.90625 26.269531 L 3.90625 23.632812 L 4.101562 21.679688 L 4.445312 19.921875 L 4.835938 18.457031 L 5.273438 17.1875 L 5.761719 16.015625 L 6.152344 15.234375 L 6.738281 14.109375 L 7.128906 13.476562 L 7.617188 12.742188 L 8.105469 12.0625 L 8.59375 11.425781 L 9.132812 10.789062 L 9.617188 10.253906 L 9.667969 10.15625 L 9.765625 10.15625 L 9.863281 9.960938 L 10.5 9.328125 L 10.59375 9.328125 L 10.695312 9.132812 L 11.230469 8.691406 L 11.765625 8.203125 L 12.351562 7.765625 L 13.183594 7.179688 L 14.109375 6.59375 L 15.136719 6.007812 L 16.453125 5.371094 L 17.429688 4.980469 L 18.359375 4.640625 L 19.921875 4.199219 L 21.289062 3.90625 L 22.65625 3.710938 Z M 23.828125 4.6875 L 22.363281 4.835938 L 20.851562 5.078125 L 19.140625 5.515625 L 17.96875 5.90625 L 16.648438 6.445312 L 15.867188 6.835938 L 14.84375 7.375 L 14.40625 7.664062 L 14.0625 7.859375 L 13.574219 8.203125 L 13.039062 8.59375 L 12.402344 9.082031 L 11.671875 9.71875 L 10.890625 10.449219 L 10.5 10.839844 L 10.5 10.9375 L 10.351562 10.984375 L 10.007812 11.375 L 9.472656 12.011719 L 8.984375 12.648438 L 8.398438 13.476562 L 7.910156 14.257812 L 7.46875 15.039062 L 6.835938 16.257812 L 6.445312 17.1875 L 5.90625 18.703125 L 5.566406 19.921875 L 5.273438 21.335938 L 5.125 22.265625 L 4.980469 24.070312 L 4.980469 25.929688 L 5.078125 25.929688 L 5.03125 26.125 L 5.125 27.195312 L 5.273438 28.46875 L 5.515625 29.589844 L 5.710938 30.46875 L 5.90625 31.007812 L 6.101562 31.640625 L 6.445312 32.570312 L 6.492188 32.8125 L 6.59375 32.859375 L 6.738281 33.203125 L 6.882812 33.59375 L 6.984375 33.59375 L 7.03125 33.886719 L 7.273438 34.375 L 7.375 34.375 L 7.421875 34.617188 L 7.714844 35.15625 L 7.8125 35.351562 L 8.835938 35.644531 L 9.523438 35.890625 L 10.253906 36.179688 L 11.179688 36.570312 L 11.230469 36.570312 L 11.28125 36.179688 L 11.28125 35.644531 L 10.789062 35.695312 L 10.15625 35.839844 L 10.351562 35.695312 L 11.230469 35.304688 L 11.28125 35.253906 L 11.28125 34.765625 L 11.179688 34.71875 L 10.742188 34.914062 L 10.351562 34.960938 L 10.15625 35.058594 L 10.15625 34.960938 L 9.863281 34.863281 L 9.472656 34.8125 L 9.523438 34.617188 L 9.765625 34.472656 L 9.960938 34.277344 L 9.960938 34.179688 L 10.15625 34.082031 L 10.398438 33.835938 L 10.449219 33.691406 L 10.007812 33.691406 L 9.8125 33.742188 L 9.863281 32.714844 L 10.15625 32.617188 L 10.398438 32.375 L 10.644531 32.226562 L 10.644531 32.128906 L 10.742188 32.128906 L 10.890625 31.933594 L 10.15625 31.984375 L 10.203125 31.882812 L 10.253906 31.25 L 10.398438 31.007812 L 10.890625 30.617188 L 10.984375 30.371094 L 10.546875 30.371094 L 10.839844 29.785156 L 10.839844 29.296875 L 11.132812 28.90625 L 11.132812 28.710938 L 11.035156 28.710938 L 11.328125 28.171875 L 11.71875 27.441406 L 11.914062 27.832031 L 12.207031 28.367188 L 12.351562 28.613281 L 12.351562 28.710938 L 12.257812 28.757812 L 12.351562 29.003906 L 12.597656 29.296875 L 12.546875 29.6875 L 12.84375 30.273438 L 12.84375 30.371094 L 12.5 30.371094 L 12.546875 30.617188 L 12.890625 30.957031 L 13.132812 31.152344 L 13.183594 31.835938 L 13.234375 32.03125 L 12.792969 31.933594 L 12.597656 31.933594 L 12.648438 32.128906 L 13.085938 32.519531 L 13.429688 32.765625 L 13.523438 32.765625 L 13.523438 33.59375 L 13.574219 33.835938 L 13.132812 33.789062 L 12.988281 33.789062 L 13.132812 34.03125 L 13.769531 34.523438 L 13.867188 34.523438 L 13.914062 34.71875 L 14.015625 34.914062 L 13.574219 34.914062 L 13.28125 35.058594 L 12.988281 35.007812 L 12.453125 34.71875 L 12.109375 34.570312 L 12.109375 36.960938 L 12.792969 37.207031 L 13.574219 37.5 L 14.015625 37.695312 L 15.234375 38.328125 L 16.015625 38.71875 L 16.992188 39.160156 L 17.625 39.40625 L 17.773438 39.355469 L 17.675781 39.0625 L 17.726562 38.769531 L 17.96875 38.476562 L 18.40625 38.28125 L 19.289062 38.132812 L 20.851562 37.988281 L 21.582031 37.792969 L 21.679688 37.648438 L 21.484375 37.5 L 20.3125 37.257812 L 20.265625 37.109375 L 20.800781 36.960938 L 21.242188 36.867188 L 22.21875 36.765625 L 22.265625 36.71875 L 22.265625 35.984375 L 21.484375 36.035156 L 21.386719 36.132812 L 21.191406 36.179688 L 20.996094 34.570312 L 20.898438 34.375 L 20.851562 34.179688 L 20.800781 34.03125 L 20.75 33.300781 L 20.703125 33.203125 L 20.605469 33.203125 L 20.703125 32.375 L 20.800781 31.640625 L 20.851562 30.8125 L 20.996094 30.125 L 21.289062 29.589844 L 21.386719 29.445312 L 21.386719 29.296875 L 21.484375 29.296875 L 21.828125 28.417969 L 22.070312 27.929688 L 22.3125 27.195312 L 22.558594 27 L 23.09375 26.757812 L 23.242188 26.320312 L 23.339844 26.320312 L 23.339844 26.171875 L 23.4375 26.171875 L 23.4375 26.074219 L 23.78125 25.976562 L 24.070312 25.828125 L 24.023438 25.539062 L 23.875 25.390625 L 23.78125 24.851562 L 23.828125 24.757812 L 23.828125 24.21875 L 24.023438 23.875 L 24.265625 23.632812 L 24.5625 23.484375 L 25.242188 23.339844 L 25.488281 23.242188 L 25.878906 23.242188 L 26.125 23.484375 L 26.464844 23.875 L 26.5625 24.171875 L 26.515625 24.367188 L 26.515625 24.707031 L 26.609375 25.148438 L 26.660156 25.390625 L 26.515625 26.023438 L 26.269531 26.171875 L 26.269531 26.320312 L 26.609375 26.609375 L 26.660156 26.757812 L 26.804688 26.90625 L 26.953125 27.148438 L 27.492188 27.441406 L 27.734375 27.734375 L 27.929688 28.417969 L 28.027344 28.808594 L 28.367188 29.835938 L 28.5625 30.273438 L 28.808594 31.054688 L 28.90625 31.933594 L 29.101562 32.519531 L 29.148438 33.105469 L 29.199219 33.15625 L 29.25 33.546875 L 29.054688 33.59375 L 29.054688 34.765625 L 29.003906 34.960938 L 28.808594 35.058594 L 28.710938 35.253906 L 28.46875 35.351562 L 28.125 35.449219 L 28.320312 35.058594 L 28.320312 34.421875 L 28.222656 34.421875 L 28.078125 34.8125 L 27.882812 34.914062 L 27.882812 34.082031 L 28.027344 33.59375 L 27.832031 33.398438 L 27.6875 32.8125 L 27.539062 32.519531 L 27.390625 32.519531 L 27.441406 32.960938 L 27.492188 33.054688 L 27.539062 33.59375 L 27.585938 33.789062 L 27.636719 34.863281 L 27.6875 35.058594 L 27.734375 36.328125 L 27.78125 36.914062 L 29.199219 37.207031 L 29.980469 37.453125 L 30.761719 37.792969 L 31.347656 38.132812 L 31.835938 38.574219 L 32.03125 38.914062 L 31.984375 39.5 L 32.46875 39.355469 L 33.835938 38.769531 L 34.667969 38.328125 L 35.15625 38.085938 L 35.398438 37.988281 L 35.449219 37.890625 L 36.375 37.453125 L 36.914062 37.207031 L 37.351562 37.0625 L 37.988281 36.816406 L 38.039062 36.621094 L 38.039062 35.203125 L 37.695312 35.109375 L 36.765625 34.960938 L 36.621094 34.863281 L 36.375 34.8125 L 36.230469 34.765625 L 36.328125 34.570312 L 36.523438 34.421875 L 36.523438 34.328125 L 36.765625 34.277344 L 37.011719 33.984375 L 37.109375 33.789062 L 36.425781 33.886719 L 36.523438 33.640625 L 36.570312 32.960938 L 36.671875 32.714844 L 37.351562 32.226562 L 37.546875 32.03125 L 37.546875 31.933594 L 37.0625 31.933594 L 36.867188 32.03125 L 37.011719 31.101562 L 37.5 30.710938 L 37.648438 30.515625 L 37.597656 30.371094 L 37.304688 30.320312 L 37.453125 29.882812 L 37.546875 29.6875 L 37.546875 29.25 L 37.84375 28.90625 L 37.792969 28.5625 L 38.183594 27.929688 L 38.378906 27.539062 L 38.378906 27.441406 L 38.476562 27.441406 L 38.574219 27.6875 L 38.914062 28.367188 L 39.015625 28.46875 L 39.0625 28.664062 L 38.964844 28.664062 L 39.015625 28.90625 L 39.0625 29.003906 L 39.160156 29.003906 L 39.257812 29.25 L 39.257812 29.492188 L 39.210938 29.6875 L 39.304688 29.6875 L 39.355469 29.882812 L 39.453125 30.125 L 39.550781 30.125 L 39.601562 30.371094 L 39.160156 30.371094 L 39.257812 30.617188 L 39.355469 30.761719 L 39.453125 30.761719 L 39.453125 30.859375 L 39.796875 31.101562 L 39.84375 31.203125 L 39.941406 31.984375 L 39.257812 31.933594 L 39.257812 32.03125 L 39.355469 32.03125 L 39.355469 32.128906 L 39.453125 32.128906 L 39.453125 32.226562 L 39.84375 32.519531 L 40.136719 32.714844 L 40.234375 32.714844 L 40.234375 33.742188 L 39.796875 33.691406 L 39.648438 33.691406 L 39.695312 33.886719 L 40.136719 34.328125 L 40.527344 34.667969 L 40.625 34.8125 L 40.1875 34.863281 L 39.992188 35.007812 L 39.695312 34.960938 L 38.964844 34.71875 L 38.867188 34.667969 L 38.867188 35.15625 L 39.84375 35.59375 L 39.992188 35.59375 L 39.992188 35.695312 L 39.550781 35.546875 L 39.0625 35.449219 L 38.867188 35.449219 L 38.867188 35.984375 L 39.601562 36.132812 L 39.992188 36.085938 L 40.722656 35.789062 L 40.96875 35.742188 L 40.96875 35.644531 L 41.308594 35.59375 L 41.894531 35.398438 L 42.1875 34.960938 L 42.53125 34.328125 L 42.625 34.132812 L 42.625 33.984375 L 42.726562 33.984375 L 43.359375 32.570312 L 43.75 31.492188 L 43.992188 30.761719 L 44.1875 29.980469 L 44.484375 28.710938 L 44.578125 28.125 L 44.628906 27.585938 L 44.679688 27.441406 L 44.824219 25.929688 L 44.824219 23.925781 L 44.679688 22.167969 L 44.484375 20.898438 L 44.09375 19.238281 L 43.554688 17.625 L 43.066406 16.453125 L 42.480469 15.234375 L 41.894531 14.210938 L 41.308594 13.328125 L 40.820312 12.648438 L 39.941406 11.570312 L 39.5 11.085938 L 39.0625 10.644531 L 38.71875 10.253906 L 38.625 10.253906 L 38.574219 10.109375 L 38.183594 9.765625 L 37.695312 9.328125 L 37.011719 8.789062 L 36.476562 8.398438 L 35.984375 8.054688 L 35.15625 7.519531 L 33.9375 6.835938 L 32.910156 6.347656 L 31.398438 5.761719 L 30.515625 5.46875 L 28.710938 5.03125 L 27.148438 4.785156 L 25.976562 4.6875 Z M 23.828125 4.6875 "/>
<path style=" stroke:none;fill-rule:nonzero;fill:rgb(99.215686%,99.215686%,99.215686%);fill-opacity:1;" d="M 23.828125 4.6875 L 25.976562 4.6875 L 27.148438 4.785156 L 28.710938 5.03125 L 30.515625 5.46875 L 31.6875 5.859375 L 33.007812 6.398438 L 34.226562 6.984375 L 35.398438 7.664062 L 36.132812 8.15625 L 36.816406 8.640625 L 37.5 9.179688 L 38.234375 9.8125 L 38.625 10.15625 L 38.625 10.253906 L 38.820312 10.351562 L 39.5 11.085938 L 39.84375 11.425781 L 40.382812 12.109375 L 40.867188 12.695312 L 41.648438 13.820312 L 42.285156 14.890625 L 42.96875 16.210938 L 43.457031 17.382812 L 43.898438 18.601562 L 44.238281 19.824219 L 44.578125 21.4375 L 44.726562 22.558594 L 44.824219 23.925781 L 44.824219 25.929688 L 44.773438 26.414062 L 44.53125 26.320312 L 43.75 25.683594 L 43.164062 25.148438 L 41.796875 23.78125 L 41.308594 23.4375 L 40.671875 23.144531 L 39.0625 22.65625 L 38.28125 22.265625 L 37.84375 21.921875 L 37.5 21.53125 L 36.914062 20.75 L 36.570312 20.214844 L 36.035156 19.433594 L 35.253906 18.261719 L 34.617188 17.335938 L 34.132812 16.699219 L 33.9375 16.308594 L 33.691406 15.773438 L 33.691406 15.671875 L 33.351562 15.722656 L 32.46875 17.039062 L 32.078125 17.675781 L 31.933594 17.625 L 31.640625 16.84375 L 31.152344 15.917969 L 30.90625 15.625 L 30.761719 15.382812 L 30.371094 14.890625 L 29.6875 14.210938 L 29.394531 14.015625 L 29.25 13.867188 L 28.320312 13.28125 L 27.492188 12.9375 L 26.757812 12.695312 L 25.929688 12.546875 L 25.390625 12.5 L 24.460938 12.5 L 23.289062 12.648438 L 21.972656 13.085938 L 21.046875 13.574219 L 20.359375 14.0625 L 20.070312 14.257812 L 19.875 14.5 L 19.578125 14.746094 L 19.140625 15.28125 L 18.75 15.820312 L 18.359375 16.503906 L 18.066406 17.140625 L 17.820312 17.871094 L 17.726562 17.96875 L 17.234375 17.089844 L 16.84375 16.40625 L 16.699219 16.0625 L 16.503906 15.96875 L 16.210938 16.015625 L 15.820312 16.503906 L 15.234375 17.335938 L 14.257812 18.796875 L 13.914062 19.289062 L 13.523438 19.824219 L 12.988281 20.359375 L 12.546875 20.898438 L 12.011719 21.53125 L 11.570312 22.117188 L 11.035156 22.804688 L 10.890625 22.949219 L 10.644531 22.898438 L 9.863281 22.507812 L 9.617188 22.414062 L 9.179688 22.414062 L 8.742188 22.703125 L 8.105469 23.289062 L 7.03125 24.367188 L 6.59375 24.707031 L 5.859375 25.097656 L 5.46875 25.4375 L 5.175781 25.78125 L 5.03125 25.828125 L 4.980469 25.539062 L 4.980469 24.070312 L 5.125 22.265625 L 5.421875 20.554688 L 5.761719 19.1875 L 6.347656 17.429688 L 6.738281 16.503906 L 7.324219 15.28125 L 7.765625 14.5 L 8.300781 13.625 L 8.789062 12.9375 L 9.179688 12.402344 L 9.8125 11.621094 L 10.304688 11.085938 L 10.398438 10.9375 L 10.5 10.9375 L 10.59375 10.742188 L 11.328125 10.007812 L 11.71875 9.667969 L 12.207031 9.226562 L 13.039062 8.59375 L 13.769531 8.054688 L 14.210938 7.765625 L 14.796875 7.421875 L 15.332031 7.128906 L 16.113281 6.6875 L 17.335938 6.152344 L 18.652344 5.664062 L 20.070312 5.273438 L 21.09375 5.03125 L 22.753906 4.785156 Z M 23.828125 4.6875 "/>
<path style=" stroke:none;fill-rule:nonzero;fill:rgb(20%,29.019609%,40.392157%);fill-opacity:1;" d="M 33.445312 15.625 L 33.691406 15.671875 L 33.9375 16.164062 L 34.132812 16.648438 L 34.523438 17.140625 L 35.007812 17.820312 L 36.28125 19.726562 L 36.816406 20.507812 L 37.453125 21.4375 L 38.085938 22.070312 L 38.523438 22.363281 L 39.210938 22.65625 L 40.671875 23.09375 L 41.453125 23.484375 L 41.84375 23.78125 L 43.554688 25.488281 L 44.09375 25.929688 L 44.679688 26.367188 L 44.773438 26.464844 L 44.679688 27.441406 L 44.628906 27.585938 L 44.53125 28.515625 L 44.289062 29.589844 L 44.1875 29.980469 L 44.09375 30.46875 L 43.945312 30.859375 L 43.75 31.492188 L 43.261719 32.8125 L 42.726562 33.984375 L 42.625 33.984375 L 42.578125 34.277344 L 42.285156 34.765625 L 41.992188 35.304688 L 41.75 35.449219 L 41.210938 35.644531 L 40.96875 35.644531 L 40.96875 35.742188 L 40.527344 35.890625 L 39.84375 36.132812 L 39.355469 36.085938 L 38.867188 35.984375 L 38.867188 35.449219 L 39.304688 35.5 L 39.890625 35.644531 L 39.992188 35.695312 L 39.992188 35.59375 L 39.746094 35.546875 L 38.867188 35.15625 L 38.867188 34.667969 L 39.796875 35.007812 L 40.039062 34.960938 L 40.234375 34.863281 L 40.625 34.8125 L 40.332031 34.472656 L 39.746094 33.9375 L 39.648438 33.835938 L 39.648438 33.691406 L 39.992188 33.691406 L 40.234375 33.742188 L 40.234375 32.714844 L 39.992188 32.617188 L 39.601562 32.324219 L 39.453125 32.226562 L 39.453125 32.128906 L 39.355469 32.128906 L 39.355469 32.03125 L 39.257812 32.03125 L 39.257812 31.933594 L 39.941406 31.984375 L 39.84375 31.203125 L 39.601562 30.957031 L 39.453125 30.859375 L 39.453125 30.761719 L 39.355469 30.761719 L 39.160156 30.46875 L 39.160156 30.371094 L 39.601562 30.371094 L 39.550781 30.125 L 39.453125 30.125 L 39.304688 29.835938 L 39.304688 29.6875 L 39.210938 29.6875 L 39.257812 29.25 L 39.160156 29.003906 L 39.0625 29.003906 L 38.964844 28.859375 L 38.964844 28.664062 L 39.0625 28.664062 L 38.964844 28.417969 L 38.71875 28.027344 L 38.574219 27.6875 L 38.476562 27.441406 L 38.378906 27.441406 L 38.28125 27.734375 L 37.84375 28.515625 L 37.792969 28.710938 L 37.84375 28.90625 L 37.546875 29.25 L 37.546875 29.6875 L 37.304688 30.226562 L 37.304688 30.320312 L 37.648438 30.421875 L 37.546875 30.617188 L 37.304688 30.859375 L 37.011719 31.101562 L 36.867188 32.03125 L 37.0625 31.933594 L 37.546875 31.933594 L 37.453125 32.128906 L 36.960938 32.519531 L 36.621094 32.765625 L 36.523438 33.445312 L 36.476562 33.742188 L 36.425781 33.886719 L 37.109375 33.789062 L 36.867188 34.179688 L 36.71875 34.328125 L 36.523438 34.328125 L 36.523438 34.421875 L 36.230469 34.667969 L 36.28125 34.765625 L 36.621094 34.863281 L 36.765625 34.960938 L 37.695312 35.109375 L 38.039062 35.203125 L 38.039062 36.765625 L 37.5 37.011719 L 37.0625 37.15625 L 36.425781 37.402344 L 35.59375 37.84375 L 35.449219 37.890625 L 35.398438 37.988281 L 35.058594 38.132812 L 34.226562 38.574219 L 33.054688 39.109375 L 32.078125 39.5 L 31.984375 39.5 L 32.03125 38.914062 L 31.738281 38.476562 L 31.296875 38.085938 L 30.371094 37.597656 L 29.394531 37.257812 L 28.320312 37.011719 L 27.78125 36.914062 L 27.734375 36.328125 L 27.6875 35.058594 L 27.636719 34.863281 L 27.585938 33.789062 L 27.492188 33.300781 L 27.492188 33.007812 L 27.441406 32.960938 L 27.390625 32.519531 L 27.585938 32.570312 L 27.734375 32.910156 L 27.832031 33.398438 L 28.027344 33.640625 L 27.882812 34.082031 L 27.882812 34.914062 L 28.125 34.765625 L 28.222656 34.421875 L 28.320312 34.421875 L 28.320312 35.058594 L 28.125 35.449219 L 28.46875 35.351562 L 28.710938 35.253906 L 28.808594 35.058594 L 29.003906 34.960938 L 29.054688 34.765625 L 29.054688 33.59375 L 29.25 33.546875 L 29.199219 33.15625 L 29.148438 33.105469 L 29.101562 32.519531 L 28.90625 31.933594 L 28.808594 31.054688 L 28.5625 30.273438 L 28.367188 29.835938 L 27.929688 28.515625 L 27.832031 28.027344 L 27.636719 27.585938 L 27.34375 27.34375 L 26.90625 27.101562 L 26.757812 26.804688 L 26.660156 26.757812 L 26.515625 26.515625 L 26.269531 26.320312 L 26.320312 26.125 L 26.515625 26.023438 L 26.660156 25.390625 L 26.609375 25.148438 L 26.515625 24.707031 L 26.515625 24.367188 L 26.5625 24.070312 L 27.34375 23.585938 L 27.78125 23.144531 L 28.417969 22.3125 L 28.859375 21.828125 L 29.296875 21.289062 L 29.785156 20.75 L 30.320312 19.96875 L 30.859375 19.238281 L 31.542969 18.3125 L 31.6875 18.117188 L 31.6875 17.773438 L 31.882812 17.675781 L 31.6875 17.234375 L 31.640625 16.992188 L 31.738281 16.945312 L 31.984375 17.625 L 32.078125 17.675781 L 32.179688 17.429688 L 32.519531 16.894531 L 33.007812 16.164062 L 33.351562 15.671875 Z M 33.445312 15.625 "/>
<path style=" stroke:none;fill-rule:nonzero;fill:rgb(99.215686%,99.215686%,99.215686%);fill-opacity:1;" d="M 24.609375 2.246094 L 25.539062 2.246094 L 27.050781 2.34375 L 28.515625 2.539062 L 29.785156 2.78125 L 31.296875 3.171875 L 33.007812 3.757812 L 34.179688 4.25 L 35.007812 4.640625 L 36.085938 5.226562 L 36.816406 5.664062 L 38.28125 6.640625 L 38.28125 6.738281 L 38.523438 6.835938 L 39.304688 7.46875 L 39.695312 7.8125 L 40.1875 8.25 L 40.527344 8.546875 L 40.527344 8.640625 L 40.625 8.640625 L 40.625 8.742188 L 40.722656 8.742188 L 40.722656 8.835938 L 40.917969 8.9375 L 41.503906 9.570312 L 41.699219 9.765625 L 41.699219 9.863281 L 41.796875 9.863281 L 42.1875 10.351562 L 42.625 10.890625 L 43.117188 11.523438 L 43.652344 12.304688 L 44.140625 13.085938 L 44.726562 14.109375 L 45.410156 15.476562 L 45.945312 16.796875 L 46.4375 18.261719 L 46.679688 19.09375 L 47.070312 20.898438 L 47.265625 22.265625 L 47.363281 23.339844 L 47.414062 24.21875 L 47.414062 25.585938 L 47.3125 27.148438 L 47.070312 28.90625 L 46.726562 30.515625 L 46.335938 31.933594 L 45.898438 33.203125 L 45.359375 34.472656 L 44.679688 35.890625 L 43.992188 37.0625 L 43.652344 37.597656 L 43.164062 38.328125 L 42.480469 39.257812 L 41.945312 39.890625 L 41.359375 40.578125 L 39.941406 41.992188 L 39.40625 42.429688 L 38.820312 42.921875 L 38.234375 43.359375 L 37.402344 43.945312 L 36.375 44.578125 L 35.058594 45.3125 L 33.886719 45.851562 L 32.960938 46.242188 L 31.738281 46.679688 L 30.175781 47.117188 L 28.808594 47.414062 L 27.585938 47.609375 L 26.074219 47.753906 L 23.535156 47.753906 L 22.363281 47.65625 L 20.507812 47.363281 L 18.75 46.921875 L 17.53125 46.53125 L 16.359375 46.09375 L 15.625 45.800781 L 14.84375 45.410156 L 13.769531 44.824219 L 12.597656 44.09375 L 11.621094 43.40625 L 11.085938 42.96875 L 10.59375 42.578125 L 10.109375 42.140625 L 9.71875 41.796875 L 8.351562 40.429688 L 7.910156 39.890625 L 7.273438 39.109375 L 6.835938 38.523438 L 6.054688 37.351562 L 5.421875 36.28125 L 4.835938 35.15625 L 4.296875 33.984375 L 3.757812 32.570312 L 3.320312 31.152344 L 2.929688 29.492188 L 2.636719 27.539062 L 2.539062 26.367188 L 2.539062 23.585938 L 2.636719 22.414062 L 2.832031 20.996094 L 3.222656 19.1875 L 3.515625 18.164062 L 3.90625 16.992188 L 4.445312 15.671875 L 4.929688 14.601562 L 5.273438 14.015625 L 5.566406 13.476562 L 5.8125 13.039062 L 6.25 12.351562 L 6.59375 11.867188 L 7.078125 11.179688 L 7.570312 10.546875 L 8.007812 10.007812 L 8.546875 9.421875 L 8.886719 9.03125 L 9.667969 8.25 L 9.765625 8.25 L 9.8125 8.105469 L 10.351562 7.664062 L 10.890625 7.179688 L 12.0625 6.296875 L 12.648438 5.90625 L 13.183594 5.566406 L 13.914062 5.125 L 14.84375 4.640625 L 15.96875 4.101562 L 17.382812 3.5625 L 18.898438 3.078125 L 20.265625 2.734375 L 21.289062 2.539062 L 22.851562 2.34375 L 23.390625 2.296875 Z M 24.070312 3.613281 L 22.65625 3.710938 L 21.289062 3.90625 L 19.921875 4.199219 L 18.210938 4.6875 L 17.039062 5.125 L 15.722656 5.710938 L 14.5 6.347656 L 13.039062 7.273438 L 12.351562 7.765625 L 11.671875 8.300781 L 11.179688 8.742188 L 10.644531 9.179688 L 10.59375 9.328125 L 10.398438 9.421875 L 9.765625 10.058594 L 9.765625 10.15625 L 9.667969 10.15625 L 9.226562 10.695312 L 8.742188 11.230469 L 8.105469 12.0625 L 7.714844 12.597656 L 7.226562 13.328125 L 6.835938 13.964844 L 6.398438 14.746094 L 6.007812 15.476562 L 5.566406 16.453125 L 5.03125 17.871094 L 4.734375 18.796875 L 4.34375 20.359375 L 4.101562 21.679688 L 3.90625 23.632812 L 3.90625 26.269531 L 4.054688 27.832031 L 4.296875 29.394531 L 4.640625 30.8125 L 5.03125 32.128906 L 5.664062 33.789062 L 6.203125 34.960938 L 6.789062 36.035156 L 7.226562 36.816406 L 7.8125 37.695312 L 8.445312 38.574219 L 8.835938 39.0625 L 9.277344 39.601562 L 10.007812 40.382812 L 10.351562 40.773438 L 10.742188 41.164062 L 11.132812 41.503906 L 11.765625 42.089844 L 12.597656 42.726562 L 13.183594 43.164062 L 13.769531 43.554688 L 14.5 43.992188 L 15.28125 44.433594 L 16.601562 45.070312 L 17.96875 45.605469 L 19.433594 46.046875 L 20.65625 46.335938 L 22.117188 46.582031 L 23.828125 46.726562 L 25.632812 46.726562 L 27.050781 46.632812 L 28.664062 46.386719 L 30.03125 46.09375 L 31.054688 45.800781 L 32.570312 45.265625 L 33.789062 44.726562 L 34.863281 44.1875 L 35.59375 43.75 L 37.0625 42.773438 L 37.695312 42.285156 L 39.0625 41.113281 L 40.085938 40.085938 L 40.429688 39.695312 L 40.96875 39.0625 L 41.40625 38.476562 L 41.40625 38.378906 L 41.503906 38.378906 L 41.796875 37.9375 L 42.285156 37.257812 L 42.578125 36.765625 L 43.066406 35.9375 L 43.601562 34.960938 L 44.042969 34.03125 L 44.628906 32.570312 L 45.019531 31.398438 L 45.410156 29.882812 L 45.703125 28.367188 L 45.851562 27.195312 L 45.898438 26.757812 L 45.945312 25.78125 L 45.945312 23.976562 L 45.851562 22.460938 L 45.605469 20.851562 L 45.265625 19.335938 L 45.070312 18.652344 L 44.578125 17.1875 L 44.09375 16.015625 L 43.3125 14.453125 L 42.726562 13.476562 L 42.234375 12.742188 L 41.75 12.0625 L 41.113281 11.28125 L 40.527344 10.59375 L 39.746094 9.765625 L 39.160156 9.179688 L 38.769531 8.835938 L 38.132812 8.300781 L 37.5 7.8125 L 36.765625 7.273438 L 35.789062 6.640625 L 34.570312 5.957031 L 33.789062 5.566406 L 32.664062 5.078125 L 31.296875 4.589844 L 29.980469 4.199219 L 28.222656 3.859375 L 26.609375 3.664062 L 25.734375 3.613281 Z M 24.070312 3.613281 "/>
<path style=" stroke:none;fill-rule:nonzero;fill:rgb(99.215686%,99.215686%,99.215686%);fill-opacity:1;" d="M 24.707031 12.742188 L 25.195312 12.742188 L 26.074219 12.84375 L 27.148438 13.085938 L 28.125 13.476562 L 29.003906 14.015625 L 29.640625 14.550781 L 30.03125 14.890625 L 30.515625 15.476562 L 31.101562 16.359375 L 31.542969 17.285156 L 31.738281 17.921875 L 31.6875 18.164062 L 30.617188 19.628906 L 30.03125 20.460938 L 29.6875 20.898438 L 29.199219 21.4375 L 28.757812 21.972656 L 28.367188 22.414062 L 27.929688 23 L 27.492188 23.484375 L 27.050781 23.828125 L 26.660156 24.070312 L 26.5625 24.070312 L 26.269531 23.632812 L 25.976562 23.289062 L 25.878906 23.242188 L 25.488281 23.242188 L 24.902344 23.4375 L 24.414062 23.535156 L 24.121094 23.730469 L 23.875 24.070312 L 23.730469 24.757812 L 23.242188 24.511719 L 22.3125 23.828125 L 21.777344 23.390625 L 21.09375 22.804688 L 20.507812 22.21875 L 20.164062 21.679688 L 19.628906 20.945312 L 18.847656 19.773438 L 18.261719 18.847656 L 18.015625 18.457031 L 18.066406 18.066406 L 18.3125 17.285156 L 18.652344 16.503906 L 19.042969 15.867188 L 19.433594 15.332031 L 19.96875 14.746094 L 20.460938 14.304688 L 21.140625 13.820312 L 22.167969 13.28125 L 23.242188 12.9375 L 24.121094 12.792969 Z M 24.707031 12.742188 "/>
<path style=" stroke:none;fill-rule:nonzero;fill:rgb(18.039216%,21.568628%,32.549021%);fill-opacity:1;" d="M 23.4375 1.855469 L 26.414062 1.855469 L 28.171875 2.050781 L 29.589844 2.296875 L 31.152344 2.6875 L 32.910156 3.273438 L 34.277344 3.808594 L 35.839844 4.589844 L 36.523438 4.980469 L 37.695312 5.710938 L 38.574219 6.347656 L 39.160156 6.789062 L 39.695312 7.226562 L 40.429688 7.910156 L 40.671875 8.105469 L 41.699219 9.132812 L 42.140625 9.617188 L 43.015625 10.695312 L 43.40625 11.230469 L 44.042969 12.109375 L 44.773438 13.328125 L 45.410156 14.5 L 45.996094 15.773438 L 46.484375 16.992188 L 46.972656 18.554688 L 47.3125 19.96875 L 47.558594 21.289062 L 47.753906 22.898438 L 47.804688 23.632812 L 47.804688 26.171875 L 47.703125 27.441406 L 47.460938 29.148438 L 47.21875 30.273438 L 46.828125 31.789062 L 46.4375 32.960938 L 45.75 34.617188 L 45.164062 35.839844 L 44.824219 36.476562 L 44.1875 37.546875 L 43.703125 38.28125 L 43.066406 39.160156 L 42.429688 39.941406 L 42.039062 40.429688 L 41.359375 41.164062 L 40.234375 42.285156 L 39.992188 42.480469 L 39.890625 42.480469 L 39.890625 42.578125 L 39.355469 43.015625 L 38.867188 43.40625 L 38.039062 43.992188 L 37.546875 44.335938 L 36.765625 44.824219 L 35.59375 45.507812 L 34.667969 45.945312 L 33.9375 46.289062 L 32.960938 46.679688 L 31.445312 47.21875 L 30.761719 47.414062 L 29.296875 47.753906 L 27.882812 48 L 25.976562 48.195312 L 23.78125 48.195312 L 22.507812 48.09375 L 20.800781 47.851562 L 19.484375 47.558594 L 17.871094 47.117188 L 16.699219 46.679688 L 16.0625 46.4375 L 14.890625 45.898438 L 13.574219 45.214844 L 12.9375 44.824219 L 12.402344 44.484375 L 11.425781 43.796875 L 10.695312 43.210938 L 10.058594 42.675781 L 9.421875 42.089844 L 8.742188 41.453125 L 8.398438 41.0625 L 8.007812 40.671875 L 7.570312 40.136719 L 7.078125 39.550781 L 6.492188 38.769531 L 5.617188 37.453125 L 5.078125 36.523438 L 4.539062 35.546875 L 4.003906 34.375 L 3.710938 33.640625 L 3.367188 32.714844 L 2.882812 31.152344 L 2.539062 29.6875 L 2.246094 27.832031 L 2.101562 26.074219 L 2.101562 23.828125 L 2.246094 22.117188 L 2.539062 20.265625 L 2.976562 18.507812 L 3.5625 16.75 L 3.859375 15.96875 L 4.296875 14.992188 L 4.6875 14.160156 L 4.980469 13.671875 L 5.226562 13.183594 L 5.957031 12.011719 L 6.445312 11.328125 L 7.03125 10.546875 L 7.664062 9.765625 L 8.25 9.132812 L 8.59375 8.742188 L 9.277344 8.054688 L 9.375 8.054688 L 9.421875 7.910156 L 9.8125 7.570312 L 10.304688 7.128906 L 10.789062 6.738281 L 11.621094 6.101562 L 12.257812 5.664062 L 13.039062 5.175781 L 13.671875 4.785156 L 14.746094 4.199219 L 16.0625 3.613281 L 17.480469 3.078125 L 18.554688 2.734375 L 19.824219 2.390625 L 21.335938 2.101562 L 22.804688 1.90625 Z M 24.609375 2.246094 L 23.390625 2.296875 L 21.679688 2.492188 L 20.507812 2.6875 L 19.289062 2.976562 L 18.40625 3.222656 L 17.382812 3.5625 L 15.867188 4.148438 L 14.453125 4.835938 L 13.914062 5.125 L 13.378906 5.46875 L 12.9375 5.710938 L 12.207031 6.203125 L 11.523438 6.6875 L 10.449219 7.570312 L 9.914062 8.054688 L 9.765625 8.15625 L 9.765625 8.25 L 9.570312 8.351562 L 8.59375 9.328125 L 8.25 9.71875 L 7.664062 10.398438 L 6.933594 11.375 L 6.542969 11.914062 L 5.957031 12.792969 L 5.46875 13.625 L 4.929688 14.601562 L 4.394531 15.773438 L 3.859375 17.140625 L 3.613281 17.820312 L 3.273438 19.042969 L 2.929688 20.507812 L 2.734375 21.679688 L 2.585938 22.851562 L 2.539062 23.585938 L 2.539062 26.367188 L 2.6875 27.929688 L 2.976562 29.6875 L 3.320312 31.152344 L 3.859375 32.859375 L 4.394531 34.179688 L 4.6875 34.863281 L 5.078125 35.644531 L 5.515625 36.476562 L 6.203125 37.597656 L 6.738281 38.378906 L 7.128906 38.914062 L 7.765625 39.695312 L 8.203125 40.234375 L 8.742188 40.820312 L 10.007812 42.089844 L 10.546875 42.53125 L 10.9375 42.871094 L 11.621094 43.40625 L 12.597656 44.09375 L 13.523438 44.679688 L 14.40625 45.164062 L 15.332031 45.65625 L 16.359375 46.09375 L 17.773438 46.632812 L 19.289062 47.070312 L 20.75 47.414062 L 22.363281 47.65625 L 23.535156 47.753906 L 26.074219 47.753906 L 27.585938 47.609375 L 29.34375 47.3125 L 31.101562 46.875 L 32.714844 46.335938 L 33.640625 45.945312 L 34.421875 45.605469 L 35.351562 45.164062 L 36.523438 44.484375 L 37.257812 44.042969 L 38.234375 43.359375 L 39.109375 42.675781 L 39.796875 42.089844 L 40.28125 41.648438 L 41.503906 40.429688 L 41.945312 39.890625 L 42.335938 39.453125 L 42.921875 38.671875 L 43.507812 37.84375 L 44.042969 36.960938 L 44.53125 36.132812 L 45.070312 35.109375 L 45.554688 34.03125 L 46.09375 32.664062 L 46.484375 31.445312 L 46.875 29.882812 L 47.070312 28.90625 L 47.3125 27.148438 L 47.414062 25.585938 L 47.414062 24.21875 L 47.3125 22.753906 L 47.117188 21.242188 L 46.828125 19.726562 L 46.582031 18.75 L 46.140625 17.335938 L 45.65625 16.0625 L 45.214844 15.085938 L 44.578125 13.820312 L 44.140625 13.085938 L 43.652344 12.304688 L 42.96875 11.328125 L 42.578125 10.839844 L 42.140625 10.304688 L 41.796875 9.863281 L 41.699219 9.863281 L 41.601562 9.667969 L 41.113281 9.179688 L 40.820312 8.835938 L 40.722656 8.835938 L 40.722656 8.742188 L 40.625 8.742188 L 40.625 8.640625 L 40.527344 8.640625 L 40.476562 8.496094 L 40.085938 8.15625 L 39.40625 7.519531 L 38.769531 7.03125 L 38.378906 6.738281 L 38.28125 6.738281 L 38.28125 6.640625 L 36.816406 5.664062 L 35.644531 4.980469 L 34.71875 4.492188 L 33.742188 4.054688 L 32.324219 3.515625 L 30.957031 3.078125 L 29.34375 2.6875 L 27.492188 2.390625 L 26.414062 2.296875 L 25.539062 2.246094 Z M 24.609375 2.246094 "/>
<path style=" stroke:none;fill-rule:nonzero;fill:rgb(99.215686%,99.215686%,99.215686%);fill-opacity:1;" d="M 27.390625 32.519531 L 27.585938 32.570312 L 27.734375 32.910156 L 27.832031 33.398438 L 28.027344 33.640625 L 27.882812 34.082031 L 27.882812 34.914062 L 28.125 34.765625 L 28.222656 34.421875 L 28.320312 34.421875 L 28.320312 35.058594 L 28.125 35.449219 L 28.46875 35.351562 L 28.710938 35.253906 L 28.808594 35.058594 L 29.003906 34.960938 L 29.054688 34.765625 L 29.054688 33.59375 L 29.25 33.546875 L 29.199219 33.15625 L 29.148438 33.105469 L 29.148438 32.617188 L 32.960938 32.910156 L 34.765625 33.15625 L 36.179688 33.445312 L 36.523438 33.546875 L 36.425781 33.886719 L 37.109375 33.789062 L 36.867188 34.179688 L 36.71875 34.328125 L 36.523438 34.328125 L 36.523438 34.421875 L 36.230469 34.667969 L 36.28125 34.765625 L 36.621094 34.863281 L 36.765625 34.960938 L 37.695312 35.109375 L 38.039062 35.203125 L 38.039062 36.765625 L 37.5 37.011719 L 37.0625 37.15625 L 36.425781 37.402344 L 35.59375 37.84375 L 35.449219 37.890625 L 35.398438 37.988281 L 35.058594 38.132812 L 34.226562 38.574219 L 33.054688 39.109375 L 32.078125 39.5 L 31.984375 39.5 L 32.03125 38.914062 L 31.738281 38.476562 L 31.296875 38.085938 L 30.371094 37.597656 L 29.394531 37.257812 L 28.320312 37.011719 L 27.78125 36.914062 L 27.734375 36.328125 L 27.6875 35.058594 L 27.636719 34.863281 L 27.585938 33.789062 L 27.492188 33.300781 L 27.492188 33.007812 L 27.441406 32.960938 Z M 27.390625 32.519531 "/>
<path style=" stroke:none;fill-rule:nonzero;fill:rgb(41.960785%,49.019608%,60.392159%);fill-opacity:1;" d="M 20.554688 32.617188 L 20.605469 32.617188 L 20.605469 33.203125 L 20.703125 33.203125 L 20.75 33.300781 L 20.800781 34.03125 L 20.898438 34.226562 L 20.898438 34.472656 L 20.996094 34.570312 L 21.191406 36.179688 L 21.4375 36.085938 L 21.484375 36.035156 L 22.265625 35.984375 L 22.265625 36.71875 L 22.21875 36.765625 L 20.996094 36.914062 L 20.359375 37.109375 L 20.265625 37.109375 L 20.3125 37.257812 L 21.484375 37.5 L 21.679688 37.695312 L 21.484375 37.84375 L 20.851562 37.988281 L 18.945312 38.183594 L 18.261719 38.328125 L 17.871094 38.574219 L 17.726562 38.769531 L 17.675781 39.0625 L 17.773438 39.40625 L 17.480469 39.355469 L 16.210938 38.820312 L 15.28125 38.378906 L 14.695312 38.039062 L 14.015625 37.695312 L 13.429688 37.453125 L 12.792969 37.207031 L 12.109375 36.960938 L 12.109375 34.570312 L 12.648438 34.8125 L 13.132812 35.058594 L 13.328125 35.007812 L 13.574219 34.914062 L 14.015625 34.914062 L 13.867188 34.667969 L 13.867188 34.523438 L 13.625 34.421875 L 13.183594 34.03125 L 13.183594 33.9375 L 13.964844 33.742188 L 14.746094 33.496094 L 16.164062 33.203125 L 18.359375 32.859375 L 20.019531 32.664062 Z M 20.554688 32.617188 "/>
<path style=" stroke:none;fill-rule:nonzero;fill:rgb(98.039216%,98.039216%,98.431373%);fill-opacity:1;" d="M 26.757812 27.148438 L 26.90625 27.296875 L 26.367188 28.222656 L 26.367188 30.515625 L 26.515625 34.132812 L 26.320312 34.328125 L 22.265625 34.277344 L 22.117188 34.226562 L 22.023438 34.03125 L 21.972656 33.351562 L 21.921875 30.078125 L 22.070312 29.835938 L 22.117188 28.367188 L 22.460938 28.078125 L 22.753906 27.882812 L 23.242188 27.832031 L 23.585938 28.171875 L 24.953125 28.171875 L 25.046875 27.976562 L 25.195312 27.882812 L 25.78125 27.882812 L 25.878906 28.078125 L 25.878906 28.222656 L 26.171875 28.171875 Z M 26.757812 27.148438 "/>
<path style=" stroke:none;fill-rule:nonzero;fill:rgb(41.960785%,49.019608%,60.392159%);fill-opacity:1;" d="M 20.554688 32.617188 L 20.605469 32.617188 L 20.605469 33.203125 L 20.703125 33.203125 L 20.75 33.300781 L 20.800781 34.03125 L 20.898438 34.226562 L 20.898438 34.472656 L 20.996094 34.570312 L 21.09375 35.304688 L 21.09375 35.59375 L 19.289062 35.449219 L 18.359375 35.398438 L 15.917969 35.398438 L 13.964844 35.546875 L 12.109375 35.789062 L 12.109375 34.570312 L 12.648438 34.8125 L 13.132812 35.058594 L 13.328125 35.007812 L 13.574219 34.914062 L 14.015625 34.914062 L 13.867188 34.667969 L 13.867188 34.523438 L 13.625 34.421875 L 13.183594 34.03125 L 13.183594 33.9375 L 13.964844 33.742188 L 14.746094 33.496094 L 16.164062 33.203125 L 18.359375 32.859375 L 20.019531 32.664062 Z M 20.554688 32.617188 "/>
<path style=" stroke:none;fill-rule:nonzero;fill:rgb(99.215686%,99.215686%,99.215686%);fill-opacity:1;" d="M 33.300781 16.503906 L 33.445312 16.554688 L 33.691406 17.625 L 33.886719 18.945312 L 33.984375 19.824219 L 33.984375 20.996094 L 33.886719 20.996094 L 33.546875 19.773438 L 33.300781 19.335938 L 33.300781 19.238281 L 33.105469 19.238281 L 33.007812 19.484375 L 32.617188 20.214844 L 32.375 20.75 L 32.03125 21.191406 L 31.738281 21.679688 L 31.25 22.3125 L 31.101562 22.898438 L 31.007812 23.484375 L 30.761719 23.730469 L 30.175781 24.21875 L 29.929688 24.757812 L 29.734375 25.292969 L 29.34375 25.78125 L 29.101562 26.023438 L 28.5625 26.515625 L 27.976562 26.90625 L 27.976562 26.757812 L 28.171875 26.464844 L 28.613281 25.878906 L 28.90625 25.34375 L 28.46875 25.585938 L 28.078125 25.929688 L 26.90625 26.804688 L 26.804688 26.804688 L 26.90625 26.5625 L 27.296875 25.929688 L 27.78125 25 L 28.078125 24.414062 L 29.148438 23.339844 L 29.394531 23.144531 L 29.539062 22.949219 L 29.640625 22.949219 L 29.734375 22.753906 L 30.078125 22.363281 L 30.421875 21.875 L 30.46875 21.632812 L 30.226562 21.679688 L 29.445312 22.265625 L 29.34375 22.167969 L 30.03125 21.289062 L 30.515625 20.75 L 30.566406 20.65625 L 30.664062 20.65625 L 30.761719 20.460938 L 31.347656 19.433594 L 31.882812 18.652344 L 32.273438 18.066406 L 32.859375 17.140625 Z M 33.300781 16.503906 "/>
<path style=" stroke:none;fill-rule:nonzero;fill:rgb(99.215686%,99.215686%,99.215686%);fill-opacity:1;" d="M 9.523438 23 L 9.863281 23 L 10.546875 23.242188 L 10.984375 23.390625 L 11.523438 23.828125 L 11.914062 24.023438 L 13.28125 24.5625 L 13.671875 24.707031 L 14.550781 24.851562 L 15.136719 25.097656 L 15.578125 25.390625 L 15.527344 25.585938 L 15.234375 25.78125 L 12.304688 25.828125 L 8.445312 25.828125 L 7.519531 25.78125 L 7.128906 25.734375 L 5.957031 25.683594 L 6.007812 25.390625 L 6.25 25.097656 L 7.128906 24.804688 L 7.519531 24.460938 L 7.617188 24.460938 L 7.714844 24.265625 L 8.445312 23.730469 L 9.082031 23.289062 Z M 9.523438 23 "/>
<path style=" stroke:none;fill-rule:nonzero;fill:rgb(41.960785%,49.019608%,60.392159%);fill-opacity:1;" d="M 31.835938 35.351562 L 34.570312 35.351562 L 36.085938 35.449219 L 37.597656 35.644531 L 38.039062 35.695312 L 38.039062 36.765625 L 37.5 37.011719 L 37.0625 37.15625 L 36.425781 37.402344 L 35.59375 37.84375 L 35.449219 37.890625 L 35.398438 37.988281 L 35.304688 37.9375 L 35.351562 37.84375 L 35.109375 37.792969 L 34.226562 37.402344 L 33.445312 37.15625 L 32.03125 36.816406 L 30.957031 36.523438 L 30.273438 36.179688 L 30.03125 36.035156 L 28.46875 35.890625 L 28.273438 35.789062 L 28.417969 35.695312 L 29.445312 35.546875 Z M 31.835938 35.351562 "/>
<path style=" stroke:none;fill-rule:nonzero;fill:rgb(16.862746%,19.607843%,30.588236%);fill-opacity:1;" d="M 22.117188 30.710938 L 24.953125 30.710938 L 25.78125 30.761719 L 25.828125 31.054688 L 25.828125 32.078125 L 25.878906 34.132812 L 22.558594 34.132812 L 22.21875 34.082031 L 22.167969 33.789062 L 22.117188 32.179688 Z M 22.117188 30.710938 "/>
<path style=" stroke:none;fill-rule:nonzero;fill:rgb(17.254902%,20%,30.980393%);fill-opacity:1;" d="M 26.5625 6.59375 L 27.101562 6.59375 L 27.734375 6.789062 L 28.171875 7.128906 L 28.515625 7.570312 L 28.664062 8.007812 L 28.664062 8.886719 L 28.515625 9.421875 L 28.171875 9.863281 L 27.734375 10.253906 L 27.148438 10.449219 L 26.5625 10.449219 L 26.125 10.351562 L 25.683594 10.109375 L 25.390625 9.863281 L 25.148438 9.523438 L 24.953125 8.835938 L 24.953125 8.300781 L 25.097656 7.714844 L 25.390625 7.226562 L 25.878906 6.835938 L 26.367188 6.640625 Z M 26.5625 6.59375 "/>
<path style=" stroke:none;fill-rule:nonzero;fill:rgb(16.862746%,19.607843%,30.588236%);fill-opacity:1;" d="M 30.617188 7.664062 L 31.347656 7.664062 L 31.882812 7.859375 L 32.273438 8.15625 L 32.617188 8.546875 L 32.8125 9.082031 L 32.8125 9.765625 L 32.664062 10.253906 L 32.375 10.742188 L 31.984375 11.132812 L 31.445312 11.375 L 31.25 11.425781 L 30.617188 11.425781 L 30.125 11.28125 L 29.734375 11.035156 L 29.492188 10.789062 L 29.25 10.449219 L 29.101562 10.058594 L 29.101562 9.277344 L 29.296875 8.691406 L 29.640625 8.25 L 30.03125 7.910156 L 30.421875 7.714844 Z M 30.617188 7.664062 "/>
<path style=" stroke:none;fill-rule:nonzero;fill:rgb(41.960785%,49.019608%,60.392159%);fill-opacity:1;" d="M 29.148438 32.617188 L 32.960938 32.910156 L 34.765625 33.15625 L 36.179688 33.445312 L 36.523438 33.546875 L 36.425781 33.886719 L 37.109375 33.789062 L 36.867188 34.179688 L 36.71875 34.328125 L 36.523438 34.328125 L 36.523438 34.421875 L 36.230469 34.667969 L 36.28125 34.765625 L 36.621094 34.863281 L 36.621094 34.914062 L 36.230469 34.914062 L 35.9375 34.8125 L 33.742188 34.523438 L 31.25 34.277344 L 29.101562 34.132812 L 29.054688 34.03125 L 29.054688 33.59375 L 29.25 33.546875 L 29.199219 33.15625 L 29.148438 33.105469 Z M 29.148438 32.617188 "/>
<path style=" stroke:none;fill-rule:nonzero;fill:rgb(99.215686%,99.215686%,99.215686%);fill-opacity:1;" d="M 22.117188 35.984375 L 22.265625 35.984375 L 22.265625 36.71875 L 22.21875 36.765625 L 20.996094 36.914062 L 20.359375 37.109375 L 20.265625 37.109375 L 20.3125 37.257812 L 21.484375 37.5 L 21.679688 37.695312 L 21.484375 37.84375 L 20.851562 37.988281 L 18.945312 38.183594 L 18.261719 38.328125 L 17.871094 38.574219 L 17.726562 38.769531 L 17.675781 39.0625 L 17.773438 39.40625 L 17.480469 39.355469 L 16.210938 38.820312 L 15.28125 38.378906 L 14.601562 37.988281 L 14.648438 37.890625 L 15.527344 37.5 L 16.648438 37.15625 L 17.820312 36.914062 L 18.601562 36.765625 L 19.921875 36.425781 L 20.507812 36.179688 L 20.851562 36.085938 L 21.386719 36.132812 L 21.484375 36.035156 Z M 22.117188 35.984375 "/>
<path style=" stroke:none;fill-rule:nonzero;fill:rgb(41.960785%,49.019608%,60.392159%);fill-opacity:1;" d="M 27.78125 36.914062 L 28.5625 37.011719 L 29.734375 37.304688 L 30.664062 37.695312 L 31.347656 38.085938 L 31.835938 38.523438 L 32.078125 38.914062 L 32.03125 39.550781 L 30.859375 39.890625 L 30.226562 40.039062 L 29.445312 40.1875 L 28.710938 40.28125 L 27.976562 40.28125 L 27.929688 39.257812 L 27.882812 38.964844 L 27.832031 37.5 L 27.78125 37.304688 Z M 27.78125 36.914062 "/>
<path style=" stroke:none;fill-rule:nonzero;fill:rgb(16.862746%,20%,30.980393%);fill-opacity:1;" d="M 37.792969 13.183594 L 38.476562 13.183594 L 38.867188 13.328125 L 39.257812 13.625 L 39.550781 13.964844 L 39.746094 14.355469 L 39.796875 14.550781 L 39.796875 15.136719 L 39.601562 15.671875 L 39.160156 16.164062 L 38.71875 16.503906 L 38.183594 16.699219 L 37.402344 16.699219 L 37.011719 16.554688 L 36.570312 16.210938 L 36.230469 15.722656 L 36.132812 15.429688 L 36.132812 14.746094 L 36.328125 14.257812 L 36.621094 13.867188 L 37.0625 13.476562 L 37.402344 13.28125 Z M 37.792969 13.183594 "/>
<path style=" stroke:none;fill-rule:nonzero;fill:rgb(99.215686%,99.215686%,99.215686%);fill-opacity:1;" d="M 34.179688 21.484375 L 34.421875 21.726562 L 34.960938 22.558594 L 35.398438 23.289062 L 36.035156 24.609375 L 36.425781 25.390625 L 36.914062 26.609375 L 37.011719 27 L 36.816406 26.90625 L 36.132812 26.074219 L 35.839844 25.734375 L 34.8125 25.195312 L 34.523438 24.953125 L 34.328125 25.195312 L 33.835938 25.929688 L 33.25 26.855469 L 32.859375 27.492188 L 32.519531 28.320312 L 32.03125 28.90625 L 31.542969 29.539062 L 31.296875 29.785156 L 31.347656 29.394531 L 31.835938 28.078125 L 32.226562 26.953125 L 32.617188 26.21875 L 32.8125 25.878906 L 32.910156 25.878906 L 33.007812 25.632812 L 33.496094 24.757812 L 33.789062 24.121094 L 33.9375 23.730469 L 34.132812 22.753906 Z M 34.179688 21.484375 "/>
<path style=" stroke:none;fill-rule:nonzero;fill:rgb(21.176471%,29.803923%,41.176471%);fill-opacity:1;" d="M 31.6875 16.945312 L 31.789062 17.089844 L 31.984375 17.625 L 32.128906 17.726562 L 32.273438 17.726562 L 32.375 17.871094 L 32.324219 18.066406 L 31.347656 19.53125 L 30.90625 20.3125 L 30.664062 20.65625 L 30.566406 20.65625 L 30.46875 20.851562 L 29.980469 21.386719 L 29.394531 22.167969 L 29.492188 22.167969 L 30.320312 21.582031 L 30.46875 21.632812 L 30.46875 21.875 L 30.125 22.363281 L 29.785156 22.753906 L 29.296875 23.242188 L 29.003906 23.585938 L 28.613281 23.925781 L 28.078125 24.460938 L 27.390625 25.878906 L 27.101562 26.320312 L 26.804688 26.804688 L 26.660156 26.757812 L 26.515625 26.515625 L 26.269531 26.320312 L 26.320312 26.125 L 26.515625 26.023438 L 26.660156 25.390625 L 26.609375 25.148438 L 26.515625 24.707031 L 26.515625 24.367188 L 26.5625 24.070312 L 27.34375 23.585938 L 27.78125 23.144531 L 28.417969 22.3125 L 28.859375 21.828125 L 29.296875 21.289062 L 29.785156 20.75 L 30.320312 19.96875 L 30.859375 19.238281 L 31.542969 18.3125 L 31.6875 18.117188 L 31.6875 17.773438 L 31.882812 17.675781 L 31.6875 17.234375 L 31.640625 16.992188 Z M 31.6875 16.945312 "/>
<path style=" stroke:none;fill-rule:nonzero;fill:rgb(99.215686%,99.215686%,99.215686%);fill-opacity:1;" d="M 16.359375 16.601562 L 16.503906 16.648438 L 17.089844 17.726562 L 17.53125 18.75 L 17.871094 19.484375 L 17.871094 19.578125 L 17.773438 19.578125 L 16.894531 18.507812 L 16.75 18.507812 L 16.648438 18.898438 L 16.648438 19.679688 L 17.1875 20.800781 L 17.578125 21.582031 L 18.117188 22.703125 L 18.210938 22.851562 L 18.164062 23 L 17.773438 22.65625 L 17.578125 22.507812 L 16.648438 22.460938 L 16.40625 22.414062 L 15.867188 23 L 15.1875 23.679688 L 14.796875 24.171875 L 14.453125 24.511719 L 14.355469 24.414062 L 14.648438 23.585938 L 14.890625 22.949219 L 15.429688 21.289062 L 15.773438 20.214844 L 15.917969 19.289062 L 16.113281 17.480469 Z M 16.359375 16.601562 "/>
<path style=" stroke:none;fill-rule:nonzero;fill:rgb(16.862746%,20%,30.980393%);fill-opacity:1;" d="M 22.65625 6.6875 L 23.144531 6.6875 L 23.585938 6.835938 L 23.925781 7.128906 L 24.070312 7.519531 L 24.070312 7.859375 L 23.925781 8.15625 L 23.730469 8.398438 L 24.171875 8.59375 L 24.367188 8.789062 L 24.460938 9.082031 L 24.460938 9.570312 L 24.316406 9.914062 L 24.070312 10.15625 L 23.585938 10.398438 L 23.046875 10.5 L 21.777344 10.59375 L 21.828125 10.203125 L 21.828125 9.765625 L 21.632812 7.960938 L 21.484375 7.226562 L 21.335938 6.984375 L 21.335938 6.882812 L 21.4375 6.835938 Z M 22.65625 6.6875 "/>
<path style=" stroke:none;fill-rule:nonzero;fill:rgb(41.960785%,49.019608%,60.392159%);fill-opacity:1;" d="M 22.21875 36.71875 L 22.265625 36.816406 L 22.21875 37.011719 L 22.167969 38.085938 L 22.070312 38.523438 L 21.875 38.964844 L 21.828125 40.234375 L 21.09375 40.1875 L 19.382812 39.84375 L 18.554688 39.648438 L 17.820312 39.453125 L 17.675781 39.304688 L 17.625 38.914062 L 17.773438 38.625 L 18.066406 38.378906 L 18.601562 38.183594 L 19.824219 38.039062 L 20.851562 37.9375 L 21.582031 37.742188 L 21.632812 37.648438 L 21.289062 37.5 L 20.3125 37.304688 L 20.265625 37.109375 L 20.996094 36.867188 Z M 22.21875 36.71875 "/>
<path style=" stroke:none;fill-rule:nonzero;fill:rgb(99.215686%,99.215686%,99.215686%);fill-opacity:1;" d="M 16.0625 40.085938 L 16.992188 40.527344 L 17.773438 40.917969 L 18.164062 41.210938 L 18.40625 41.554688 L 18.457031 41.699219 L 18.457031 42.089844 L 18.261719 42.480469 L 17.871094 42.773438 L 17.726562 42.820312 L 17.234375 42.820312 L 17.675781 44.289062 L 17.773438 44.53125 L 17.335938 44.382812 L 16.84375 44.140625 L 16.75 44.042969 L 16.503906 42.773438 L 16.40625 42.578125 L 16.0625 42.429688 L 15.917969 42.429688 L 15.578125 43.261719 L 15.578125 43.554688 L 15.28125 43.457031 L 14.550781 43.066406 L 14.601562 42.921875 L 14.941406 42.675781 L 15.332031 41.992188 L 16.015625 40.625 Z M 16.0625 40.085938 "/>
<path style=" stroke:none;fill-rule:nonzero;fill:rgb(16.862746%,20%,30.980393%);fill-opacity:1;" d="M 15.527344 8.984375 L 15.625 9.03125 L 15.820312 9.765625 L 16.308594 10.5 L 16.75 11.179688 L 17.234375 11.867188 L 17.480469 12.109375 L 17.578125 12.257812 L 16.84375 12.742188 L 16.648438 12.792969 L 16.554688 12.351562 L 16.0625 11.523438 L 15.96875 11.476562 L 15.429688 11.816406 L 14.941406 12.15625 L 14.992188 12.351562 L 15.476562 13.039062 L 15.820312 13.328125 L 15.578125 13.574219 L 15.039062 13.964844 L 14.890625 13.914062 L 14.746094 13.378906 L 14.304688 12.695312 L 13.234375 11.132812 L 12.890625 10.890625 L 12.9375 10.742188 L 13.476562 10.398438 L 13.671875 10.253906 L 13.820312 10.253906 L 13.964844 10.742188 L 14.257812 11.230469 L 14.453125 11.523438 L 14.453125 11.621094 L 14.796875 11.425781 L 15.578125 10.890625 L 15.476562 10.644531 L 15.136719 10.109375 L 14.890625 9.8125 L 14.648438 9.667969 L 14.648438 9.570312 L 15.429688 9.082031 Z M 15.527344 8.984375 "/>
<path style=" stroke:none;fill-rule:nonzero;fill:rgb(41.960785%,49.019608%,60.392159%);fill-opacity:1;" d="M 24.953125 35.15625 L 25.097656 35.203125 L 25.292969 35.695312 L 25.632812 37.011719 L 25.734375 37.402344 L 25.828125 37.742188 L 25.78125 38.039062 L 25.78125 38.523438 L 25.929688 39.746094 L 25.976562 39.992188 L 24.609375 40.039062 L 23.78125 40.039062 L 23.875 38.28125 L 24.121094 37.648438 L 24.367188 36.621094 L 24.707031 35.742188 L 24.851562 35.253906 Z M 24.953125 35.15625 "/>
<path style=" stroke:none;fill-rule:nonzero;fill:rgb(99.215686%,99.215686%,99.215686%);fill-opacity:1;" d="M 34.03125 39.746094 L 34.179688 39.746094 L 34.328125 40.332031 L 34.71875 41.113281 L 35.5 42.429688 L 35.644531 42.625 L 35.59375 42.773438 L 35.253906 42.921875 L 34.914062 42.871094 L 32.664062 42.1875 L 32.226562 42.039062 L 32.617188 42.820312 L 33.054688 43.554688 L 33.351562 43.75 L 33.203125 43.945312 L 32.46875 44.289062 L 32.324219 44.289062 L 32.273438 43.75 L 31.835938 42.820312 L 31.492188 42.234375 L 31.203125 41.699219 L 30.761719 41.40625 L 30.8125 41.308594 L 31.347656 41.0625 L 31.738281 41.113281 L 34.179688 41.84375 L 34.328125 41.84375 L 33.835938 40.96875 L 33.445312 40.429688 L 33.25 40.28125 L 33.25 40.1875 L 33.789062 39.890625 Z M 34.03125 39.746094 "/>
<path style=" stroke:none;fill-rule:nonzero;fill:rgb(99.215686%,99.215686%,99.215686%);fill-opacity:1;" d="M 20.3125 34.277344 L 20.851562 34.277344 L 20.945312 34.523438 L 21.046875 34.863281 L 21.09375 35.59375 L 19.289062 35.449219 L 18.359375 35.398438 L 15.917969 35.398438 L 13.964844 35.546875 L 12.109375 35.789062 L 12.109375 35.398438 L 12.988281 35.203125 L 14.746094 34.914062 L 16.84375 34.617188 L 19.238281 34.375 L 19.53125 34.328125 Z M 20.3125 34.277344 "/>
<path style=" stroke:none;fill-rule:nonzero;fill:rgb(17.254902%,20.392157%,31.37255%);fill-opacity:1;" d="M 34.226562 9.132812 L 34.421875 9.179688 L 35.007812 9.617188 L 35.15625 9.765625 L 34.71875 10.109375 L 34.277344 10.59375 L 34.132812 10.789062 L 34.667969 10.742188 L 35.644531 10.546875 L 35.742188 10.5 L 35.789062 10.351562 L 35.984375 10.398438 L 36.476562 10.742188 L 36.671875 10.9375 L 36.621094 11.132812 L 35.007812 11.328125 L 34.667969 11.328125 L 34.617188 12.695312 L 34.617188 13.820312 L 34.375 13.71875 L 33.886719 13.378906 L 33.789062 13.234375 L 33.835938 12.402344 L 33.9375 11.179688 L 33.546875 11.523438 L 33.054688 12.207031 L 32.960938 12.597656 L 32.664062 12.5 L 32.179688 12.109375 L 32.03125 11.914062 L 32.421875 11.671875 L 32.664062 11.425781 L 33.351562 10.546875 L 33.789062 10.007812 L 34.082031 9.570312 Z M 34.226562 9.132812 "/>
<path style=" stroke:none;fill-rule:nonzero;fill:rgb(99.215686%,99.215686%,99.215686%);fill-opacity:1;" d="M 27.636719 41.992188 L 27.832031 42.089844 L 28.273438 42.625 L 29.148438 43.796875 L 29.785156 44.578125 L 30.175781 44.921875 L 30.175781 45.019531 L 29.199219 45.214844 L 29.054688 45.214844 L 28.90625 44.773438 L 28.757812 44.53125 L 28.757812 44.433594 L 27.585938 44.628906 L 27.148438 44.679688 L 27 45.164062 L 26.953125 45.507812 L 26.464844 45.605469 L 25.929688 45.605469 L 26.21875 45.070312 L 26.464844 44.53125 L 26.804688 43.554688 L 27.390625 42.039062 Z M 27.636719 41.992188 "/>
<path style=" stroke:none;fill-rule:nonzero;fill:rgb(17.254902%,20%,31.37255%);fill-opacity:1;" d="M 18.359375 7.664062 L 18.554688 7.714844 L 18.898438 8.398438 L 18.796875 8.445312 L 18.261719 8.445312 L 17.675781 8.691406 L 17.53125 8.691406 L 17.820312 9.277344 L 17.871094 9.570312 L 18.457031 9.328125 L 18.796875 9.082031 L 18.898438 9.082031 L 19.140625 9.71875 L 19.140625 9.914062 L 18.703125 9.960938 L 18.210938 10.203125 L 18.554688 10.9375 L 18.554688 11.035156 L 19.09375 10.839844 L 19.484375 10.59375 L 19.824219 10.304688 L 19.921875 10.304688 L 20.019531 11.132812 L 19.875 11.28125 L 19.09375 11.570312 L 18.164062 11.960938 L 17.96875 11.960938 L 17.820312 11.28125 L 17.285156 10.007812 L 16.945312 9.277344 L 16.75 8.886719 L 16.503906 8.59375 L 16.503906 8.496094 L 17.675781 7.960938 Z M 18.359375 7.664062 "/>
<path style=" stroke:none;fill-rule:nonzero;fill:rgb(99.215686%,99.215686%,99.215686%);fill-opacity:1;" d="M 16.503906 26.21875 L 16.894531 26.320312 L 17.1875 26.269531 L 17.089844 26.464844 L 16.945312 26.515625 L 17.382812 27.050781 L 17.625 27.296875 L 17.921875 27.390625 L 18.015625 27.390625 L 17.96875 27.636719 L 18.40625 27.6875 L 18.898438 27.492188 L 19.140625 27.441406 L 19.1875 27.585938 L 18.992188 27.882812 L 18.261719 28.613281 L 18.210938 29.054688 L 18.117188 29.199219 L 18.015625 29.199219 L 17.96875 28.90625 L 17.726562 29.054688 L 16.945312 29.6875 L 16.554688 30.03125 L 16.359375 30.175781 L 16.210938 30.175781 L 16.359375 29.6875 L 15.917969 29.785156 L 16.0625 29.539062 L 15.867188 29.34375 L 15.96875 29.148438 L 16.164062 29.054688 L 16.359375 29.199219 L 16.601562 29.25 L 16.699219 29.054688 L 16.992188 28.664062 L 17.039062 28.5625 L 17.140625 28.5625 L 17.140625 28.417969 L 16.992188 28.417969 L 17.039062 28.222656 L 17.140625 28.222656 L 16.796875 27.539062 L 16.75 27.390625 L 16.554688 27.492188 L 16.164062 27.882812 L 15.773438 28.171875 L 15.671875 28.125 L 16.0625 27.296875 L 15.28125 27.734375 L 14.992188 27.929688 L 14.890625 27.929688 L 14.992188 27.734375 L 15.1875 27.492188 L 15.429688 27.296875 L 15.773438 26.90625 L 15.917969 26.855469 L 16.015625 26.660156 L 16.40625 26.320312 Z M 16.503906 26.21875 "/>
<path style=" stroke:none;fill-rule:nonzero;fill:rgb(99.215686%,99.215686%,99.215686%);fill-opacity:1;" d="M 20.554688 32.617188 L 20.605469 32.617188 L 20.605469 33.300781 L 20.460938 33.351562 L 18.261719 33.59375 L 16.503906 33.886719 L 14.84375 34.226562 L 13.769531 34.523438 L 13.328125 34.179688 L 13.183594 34.03125 L 13.183594 33.9375 L 13.964844 33.742188 L 14.746094 33.496094 L 16.164062 33.203125 L 18.359375 32.859375 L 20.019531 32.664062 Z M 20.554688 32.617188 "/>
<path style=" stroke:none;fill-rule:nonzero;fill:rgb(16.470589%,19.215687%,30.19608%);fill-opacity:1;" d="M 23.4375 28.417969 L 25.828125 28.417969 L 25.878906 28.613281 L 25.34375 28.613281 L 25.34375 28.710938 L 25.878906 28.710938 L 25.878906 29.785156 L 25.828125 29.835938 L 22.265625 29.835938 L 22.3125 28.46875 Z M 23.4375 28.417969 "/>
<path style=" stroke:none;fill-rule:nonzero;fill:rgb(99.215686%,99.215686%,99.215686%);fill-opacity:1;" d="M 26.515625 7.273438 L 27.148438 7.273438 L 27.539062 7.519531 L 27.78125 7.8125 L 27.882812 8.054688 L 27.882812 8.835938 L 27.6875 9.328125 L 27.441406 9.570312 L 27.246094 9.71875 L 27.101562 9.765625 L 26.464844 9.765625 L 26.023438 9.472656 L 25.78125 9.082031 L 25.734375 8.835938 L 25.734375 8.351562 L 25.878906 7.859375 L 26.171875 7.46875 Z M 26.515625 7.273438 "/>
<path style=" stroke:none;fill-rule:nonzero;fill:rgb(99.215686%,99.215686%,99.215686%);fill-opacity:1;" d="M 30.859375 8.300781 L 31.25 8.300781 L 31.640625 8.496094 L 31.882812 8.742188 L 32.078125 9.179688 L 32.03125 9.71875 L 31.835938 10.203125 L 31.492188 10.59375 L 31.054688 10.789062 L 30.664062 10.789062 L 30.175781 10.546875 L 29.980469 10.304688 L 29.882812 10.058594 L 29.835938 9.617188 L 29.980469 9.082031 L 30.226562 8.691406 L 30.566406 8.398438 Z M 30.859375 8.300781 "/>
<path style=" stroke:none;fill-rule:nonzero;fill:rgb(99.215686%,99.215686%,99.215686%);fill-opacity:1;" d="M 20.460938 41.796875 L 20.945312 41.84375 L 21.632812 41.992188 L 21.632812 42.429688 L 22.023438 43.40625 L 22.023438 43.507812 L 22.21875 43.457031 L 22.3125 43.261719 L 22.558594 42.96875 L 22.804688 42.726562 L 23.046875 42.429688 L 23.09375 42.140625 L 23.875 42.234375 L 24.171875 42.285156 L 24.070312 42.480469 L 23.632812 42.820312 L 22.363281 44.09375 L 22.265625 44.53125 L 22.265625 45.460938 L 21.632812 45.410156 L 21.191406 45.3125 L 21.242188 45.117188 L 21.4375 44.679688 L 21.53125 44.238281 L 21.53125 43.898438 L 21.140625 43.117188 L 20.554688 42.039062 L 20.460938 41.945312 Z M 20.460938 41.796875 "/>
<path style=" stroke:none;fill-rule:nonzero;fill:rgb(17.254902%,20.392157%,31.37255%);fill-opacity:1;" d="M 12.207031 11.328125 L 12.453125 11.425781 L 12.890625 11.765625 L 12.890625 11.914062 L 12.453125 12.0625 L 12.207031 12.304688 L 12.109375 12.304688 L 12.15625 12.5 L 13.574219 13.914062 L 14.109375 14.355469 L 14.355469 14.453125 L 14.257812 14.695312 L 13.867188 15.085938 L 13.671875 15.234375 L 13.523438 15.234375 L 13.328125 14.796875 L 12.742188 14.160156 L 11.671875 13.085938 L 11.671875 12.988281 L 11.476562 13.039062 L 11.085938 13.429688 L 10.9375 13.769531 L 10.789062 13.71875 L 10.449219 13.183594 L 10.546875 12.988281 L 11.035156 12.5 L 11.28125 12.304688 L 11.570312 11.960938 L 11.867188 11.71875 Z M 12.207031 11.328125 "/>
<path style=" stroke:none;fill-rule:nonzero;fill:rgb(17.254902%,20.392157%,31.37255%);fill-opacity:1;" d="M 40.820312 15.917969 L 40.917969 15.917969 L 41.308594 16.796875 L 41.75 17.773438 L 40.96875 18.015625 L 40.867188 18.015625 L 40.917969 17.578125 L 40.671875 16.992188 L 40.578125 16.945312 L 39.890625 17.285156 L 40.1875 17.871094 L 40.234375 18.015625 L 40.332031 18.015625 L 40.382812 18.164062 L 40.136719 18.3125 L 39.648438 18.457031 L 39.5 18.457031 L 39.5 18.015625 L 39.304688 17.625 L 39.304688 17.53125 L 38.28125 18.015625 L 38.039062 18.261719 L 37.890625 18.210938 L 37.597656 17.480469 L 37.597656 17.335938 L 38.328125 17.140625 L 39.796875 16.503906 L 40.625 16.0625 Z M 40.820312 15.917969 "/>
<path style=" stroke:none;fill-rule:nonzero;fill:rgb(99.215686%,99.215686%,99.215686%);fill-opacity:1;" d="M 29.148438 32.617188 L 32.960938 32.910156 L 34.765625 33.15625 L 36.179688 33.445312 L 36.523438 33.546875 L 36.425781 33.886719 L 37.109375 33.789062 L 37.011719 33.984375 L 36.671875 34.277344 L 36.230469 34.179688 L 34.863281 33.835938 L 33.546875 33.59375 L 31.835938 33.351562 L 29.199219 33.054688 L 29.148438 33.007812 Z M 29.148438 32.617188 "/>
<path style=" stroke:none;fill-rule:nonzero;fill:rgb(99.215686%,99.215686%,99.215686%);fill-opacity:1;" d="M 38.234375 13.867188 L 38.625 13.964844 L 38.867188 14.109375 L 38.867188 14.210938 L 38.964844 14.210938 L 39.160156 14.601562 L 39.109375 15.039062 L 38.914062 15.332031 L 38.476562 15.773438 L 38.085938 15.96875 L 37.890625 16.015625 L 37.453125 16.015625 L 36.960938 15.722656 L 36.765625 15.332031 L 36.765625 14.992188 L 36.960938 14.601562 L 37.257812 14.257812 L 37.597656 14.015625 L 37.84375 13.914062 Z M 38.234375 13.867188 "/>
<path style=" stroke:none;fill-rule:nonzero;fill:rgb(99.215686%,99.215686%,99.215686%);fill-opacity:1;" d="M 15.382812 18.210938 L 15.476562 18.261719 L 15.476562 18.652344 L 15.234375 19.921875 L 14.992188 20.75 L 14.695312 21.4375 L 14.210938 22.265625 L 14.109375 22.265625 L 14.015625 22.460938 L 14.0625 21.828125 L 14.355469 20.800781 L 14.40625 20.359375 L 14.0625 20.554688 L 13.671875 20.996094 L 13.328125 21.484375 L 12.84375 22.265625 L 12.453125 22.851562 L 12.351562 22.898438 L 12.5 22.414062 L 12.792969 21.632812 L 13.183594 21.140625 L 13.429688 20.703125 L 13.523438 20.703125 L 13.625 20.460938 L 14.015625 19.921875 L 14.453125 19.289062 L 14.941406 18.652344 L 15.234375 18.3125 Z M 15.382812 18.210938 "/>
<path style=" stroke:none;fill-rule:nonzero;fill:rgb(99.215686%,99.215686%,99.215686%);fill-opacity:1;" d="M 41.75 25.734375 L 41.894531 25.734375 L 41.945312 25.878906 L 41.945312 26.414062 L 41.84375 26.804688 L 41.601562 27.148438 L 41.554688 27.34375 L 41.699219 27.636719 L 41.699219 27.882812 L 41.601562 27.882812 L 41.601562 27.78125 L 41.40625 27.6875 L 41.210938 27.734375 L 40.96875 27.976562 L 41.015625 28.320312 L 40.820312 28.5625 L 40.722656 28.5625 L 40.625 28.171875 L 40.1875 28.417969 L 39.695312 28.664062 L 39.40625 28.757812 L 39.109375 28.757812 L 39.0625 28.613281 L 39.210938 28.367188 L 39.648438 27.882812 L 40.085938 27.441406 L 40.1875 27.246094 L 39.84375 27.148438 L 39.84375 27.050781 L 39.941406 27.050781 L 39.992188 26.90625 L 40.085938 26.855469 L 40.625 26.855469 L 41.554688 25.929688 Z M 41.75 25.734375 "/>
<path style=" stroke:none;fill-rule:nonzero;fill:rgb(99.215686%,99.215686%,99.215686%);fill-opacity:1;" d="M 18.210938 20.460938 L 18.3125 20.460938 L 18.703125 21.191406 L 19.382812 22.363281 L 19.726562 22.851562 L 20.410156 23.585938 L 20.75 23.925781 L 21.191406 24.609375 L 21.726562 25.292969 L 21.921875 25.539062 L 21.921875 25.632812 L 21.679688 25.539062 L 20.703125 24.953125 L 20.3125 24.460938 L 19.875 23.976562 L 19.433594 23.4375 L 18.847656 22.65625 L 18.554688 21.777344 L 18.210938 20.65625 Z M 18.210938 20.460938 "/>
<path style=" stroke:none;fill-rule:nonzero;fill:rgb(20.784314%,26.274511%,37.254903%);fill-opacity:1;" d="M 25 12.5 L 25.929688 12.5 L 26.757812 12.648438 L 27.78125 12.988281 L 28.5625 13.378906 L 29.394531 13.914062 L 29.589844 14.109375 L 29.980469 14.453125 L 30.566406 15.039062 L 30.90625 15.476562 L 31.054688 15.722656 L 31.398438 16.257812 L 31.6875 16.84375 L 31.6875 17.140625 L 31.882812 17.578125 L 31.882812 17.675781 L 31.789062 17.675781 L 31.738281 17.871094 L 31.738281 17.773438 L 31.640625 17.773438 L 31.445312 17.1875 L 31.007812 16.257812 L 30.320312 15.28125 L 29.734375 14.648438 L 29.199219 14.210938 L 28.710938 13.867188 L 28.027344 13.476562 L 27 13.085938 L 25.828125 12.84375 L 25.292969 12.742188 L 25.292969 12.648438 L 25 12.546875 Z M 25 12.5 "/>
<path style=" stroke:none;fill-rule:nonzero;fill:rgb(99.215686%,99.215686%,99.215686%);fill-opacity:1;" d="M 17.96875 35.9375 L 18.554688 35.9375 L 18.554688 36.035156 L 18.117188 36.132812 L 16.84375 36.328125 L 15.234375 36.621094 L 14.0625 36.816406 L 12.792969 37.109375 L 12.351562 37.0625 L 12.109375 36.960938 L 12.109375 36.570312 L 13.867188 36.28125 L 15.429688 36.085938 L 16.699219 35.984375 Z M 17.96875 35.9375 "/>
<path style=" stroke:none;fill-rule:nonzero;fill:rgb(99.215686%,99.215686%,99.215686%);fill-opacity:1;" d="M 32.128906 35.9375 L 32.910156 35.9375 L 34.617188 36.035156 L 36.476562 36.28125 L 37.792969 36.523438 L 38.039062 36.621094 L 37.988281 36.816406 L 37.351562 37.0625 L 36.867188 36.960938 L 35.058594 36.570312 L 32.273438 36.085938 L 32.128906 36.035156 Z M 32.128906 35.9375 "/>
<path style=" stroke:none;fill-rule:nonzero;fill:rgb(20.784314%,26.274511%,37.64706%);fill-opacity:1;" d="M 24.460938 12.453125 L 25.390625 12.453125 L 25.195312 12.546875 L 25.390625 12.648438 L 25.539062 12.792969 L 24.707031 12.792969 L 23.4375 12.9375 L 22.460938 13.234375 L 21.875 13.476562 L 21.140625 13.867188 L 20.605469 14.257812 L 20.214844 14.601562 L 20.019531 14.5 L 19.773438 14.648438 L 19.679688 14.601562 L 19.96875 14.355469 L 20.214844 14.109375 L 20.898438 13.625 L 21.582031 13.234375 L 22.117188 12.988281 L 23.289062 12.597656 Z M 24.460938 12.453125 "/>
<path style=" stroke:none;fill-rule:nonzero;fill:rgb(99.215686%,99.215686%,99.215686%);fill-opacity:1;" d="M 11.179688 34.71875 L 11.28125 34.765625 L 11.28125 35.253906 L 10.5 35.644531 L 10.15625 35.789062 L 10.15625 35.839844 L 11.035156 35.644531 L 11.28125 35.644531 L 11.28125 36.179688 L 11.230469 36.570312 L 10.59375 36.328125 L 9.667969 35.9375 L 9.277344 35.789062 L 9.328125 35.644531 L 10.15625 35.203125 Z M 11.179688 34.71875 "/>
<path style=" stroke:none;fill-rule:nonzero;fill:rgb(99.215686%,99.215686%,99.215686%);fill-opacity:1;" d="M 36.085938 22.21875 L 36.28125 22.3125 L 36.523438 22.558594 L 36.523438 22.65625 L 36.71875 22.753906 L 37.257812 23.289062 L 37.597656 23.679688 L 38.476562 24.5625 L 38.867188 24.902344 L 39.257812 25.390625 L 39.550781 25.929688 L 39.695312 26.125 L 39.695312 26.21875 L 39.453125 26.125 L 39.0625 25.78125 L 38.820312 25.539062 L 38.328125 25 L 37.988281 24.511719 L 37.207031 23.925781 L 36.960938 23.679688 L 36.328125 22.65625 L 36.085938 22.265625 Z M 36.085938 22.21875 "/>
<path style=" stroke:none;fill-rule:nonzero;fill:rgb(99.215686%,99.215686%,99.215686%);fill-opacity:1;" d="M 38.867188 34.667969 L 39.796875 35.007812 L 40.429688 35.351562 L 40.917969 35.644531 L 40.917969 35.742188 L 40.136719 36.035156 L 39.84375 36.132812 L 39.355469 36.085938 L 38.867188 35.984375 L 38.867188 35.449219 L 39.304688 35.5 L 39.890625 35.644531 L 39.992188 35.695312 L 39.992188 35.59375 L 39.746094 35.546875 L 38.867188 35.15625 Z M 38.867188 34.667969 "/>
<path style=" stroke:none;fill-rule:nonzero;fill:rgb(99.215686%,99.215686%,99.215686%);fill-opacity:1;" d="M 24.953125 35.15625 L 25.097656 35.203125 L 25.292969 35.695312 L 25.585938 36.816406 L 25.585938 36.960938 L 25.097656 37.109375 L 24.707031 37.0625 L 24.316406 36.960938 L 24.367188 36.621094 L 24.707031 35.742188 L 24.851562 35.253906 Z M 24.953125 35.15625 "/>
<path style=" stroke:none;fill-rule:nonzero;fill:rgb(19.607843%,23.921569%,34.901962%);fill-opacity:1;" d="M 20.019531 14.453125 L 20.164062 14.5 L 20.070312 14.695312 L 19.628906 15.136719 L 19.1875 15.722656 L 18.847656 16.257812 L 18.457031 17.039062 L 18.210938 17.675781 L 18.066406 18.210938 L 17.921875 18.210938 L 17.921875 18.066406 L 17.726562 18.164062 L 17.625 18.066406 L 17.53125 17.871094 L 17.382812 17.871094 L 17.335938 17.578125 L 17.53125 17.675781 L 17.773438 17.871094 L 18.117188 16.894531 L 18.601562 15.96875 L 19.09375 15.28125 L 19.628906 14.648438 Z M 20.019531 14.453125 "/>
<path style=" stroke:none;fill-rule:nonzero;fill:rgb(99.215686%,99.215686%,99.215686%);fill-opacity:1;" d="M 21.777344 34.226562 L 22.070312 34.277344 L 22.21875 34.617188 L 22.363281 34.71875 L 22.3125 35.789062 L 21.632812 35.695312 L 21.386719 35.644531 L 21.289062 35.007812 L 21.289062 34.765625 L 21.386719 34.71875 L 21.484375 34.277344 Z M 21.777344 34.226562 "/>
<path style=" stroke:none;fill-rule:nonzero;fill:rgb(22.745098%,30.980393%,42.352942%);fill-opacity:1;" d="M 39.992188 20.070312 L 40.820312 20.070312 L 42.578125 20.164062 L 42.578125 20.265625 L 41.796875 20.65625 L 40.625 20.605469 L 39.257812 20.507812 L 39.40625 20.359375 Z M 39.992188 20.070312 "/>
<path style=" stroke:none;fill-rule:nonzero;fill:rgb(17.254902%,20.392157%,31.37255%);fill-opacity:1;" d="M 16.648438 41.015625 L 16.894531 41.0625 L 17.480469 41.359375 L 17.675781 41.601562 L 17.675781 41.945312 L 17.429688 42.234375 L 17.335938 42.285156 L 16.945312 42.285156 L 16.164062 41.945312 L 16.40625 41.453125 Z M 16.648438 41.015625 "/>
<path style=" stroke:none;fill-rule:nonzero;fill:rgb(21.960784%,30.19608%,41.568628%);fill-opacity:1;" d="M 8.054688 20.265625 L 9.765625 20.3125 L 10.546875 20.359375 L 10.351562 20.554688 L 9.765625 20.851562 L 8.9375 20.800781 L 7.960938 20.605469 L 7.421875 20.410156 L 7.375 20.3125 Z M 8.054688 20.265625 "/>
<path style=" stroke:none;fill-rule:nonzero;fill:rgb(22.745098%,30.588236%,41.960785%);fill-opacity:1;" d="M 8.445312 18.554688 L 9.71875 18.554688 L 11.375 18.652344 L 11.328125 18.796875 L 10.742188 19.09375 L 10.695312 19.140625 L 10.007812 19.09375 L 9.179688 18.992188 L 8.398438 18.652344 Z M 8.445312 18.554688 "/>
<path style=" stroke:none;fill-rule:nonzero;fill:rgb(99.215686%,99.215686%,99.215686%);fill-opacity:1;" d="M 22.753906 8.835938 L 23.339844 8.835938 L 23.585938 8.984375 L 23.679688 9.132812 L 23.730469 9.421875 L 23.585938 9.667969 L 23.339844 9.863281 L 23.195312 9.914062 L 22.609375 9.914062 L 22.507812 9.132812 L 22.507812 8.886719 Z M 22.753906 8.835938 "/>
<path style=" stroke:none;fill-rule:nonzero;fill:rgb(99.215686%,99.215686%,99.215686%);fill-opacity:1;" d="M 22.851562 31.398438 L 23.144531 31.445312 L 23.195312 31.640625 L 23.976562 31.640625 L 24.707031 31.6875 L 24.757812 31.492188 L 24.804688 31.445312 L 25.195312 31.445312 L 25.292969 31.640625 L 25.585938 31.738281 L 25.585938 31.835938 L 25.292969 31.882812 L 25.242188 32.128906 L 24.804688 32.128906 L 24.707031 31.835938 L 23.289062 31.835938 L 23.195312 31.882812 L 23.144531 32.128906 L 22.753906 32.128906 L 22.65625 32.078125 L 22.65625 31.789062 L 22.414062 31.738281 L 22.414062 31.640625 L 22.558594 31.640625 L 22.65625 31.445312 Z M 22.851562 31.398438 "/>
<path style=" stroke:none;fill-rule:nonzero;fill:rgb(28.235295%,36.078432%,47.450981%);fill-opacity:1;" d="M 26.074219 28.417969 L 26.171875 28.417969 L 26.171875 29.054688 L 26.125 30.175781 L 26.074219 30.273438 L 22.117188 30.226562 L 22.167969 30.03125 L 25.976562 29.980469 Z M 26.074219 28.417969 "/>
<path style=" stroke:none;fill-rule:nonzero;fill:rgb(99.215686%,99.215686%,99.215686%);fill-opacity:1;" d="M 22.460938 7.324219 L 22.949219 7.324219 L 23.195312 7.421875 L 23.339844 7.714844 L 23.289062 8.054688 L 23.09375 8.25 L 22.753906 8.351562 L 22.460938 8.351562 L 22.414062 8.300781 L 22.3125 7.375 Z M 22.460938 7.324219 "/>
<path style=" stroke:none;fill-rule:nonzero;fill:rgb(20%,24.313726%,35.294119%);fill-opacity:1;" d="M 26.023438 30.710938 L 26.21875 30.710938 L 26.21875 34.03125 L 26.171875 34.132812 L 26.023438 34.082031 L 25.976562 33.742188 L 25.976562 30.761719 Z M 26.023438 30.710938 "/>
<path style=" stroke:none;fill-rule:nonzero;fill:rgb(24.313726%,32.549021%,43.921569%);fill-opacity:1;" d="M 24.460938 12.453125 L 25.390625 12.453125 L 25.195312 12.546875 L 25.390625 12.648438 L 25.539062 12.792969 L 24.707031 12.792969 L 23.4375 12.9375 L 22.851562 13.085938 L 22.851562 12.988281 L 23.046875 12.792969 L 22.949219 12.695312 L 23.632812 12.546875 Z M 24.460938 12.453125 "/>
<path style=" stroke:none;fill-rule:nonzero;fill:rgb(18.82353%,22.352941%,33.333334%);fill-opacity:1;" d="M 27.636719 43.015625 L 27.832031 43.117188 L 28.367188 43.898438 L 28.367188 43.992188 L 27.585938 44.140625 L 27.296875 44.140625 L 27.441406 43.601562 Z M 27.636719 43.015625 "/>
<path style=" stroke:none;fill-rule:nonzero;fill:rgb(23.137255%,31.37255%,42.745098%);fill-opacity:1;" d="M 32.179688 18.898438 L 32.273438 18.898438 L 32.226562 19.335938 L 31.984375 20.019531 L 31.738281 20.410156 L 31.640625 20.410156 L 31.59375 20.554688 L 31.445312 20.554688 L 31.542969 19.773438 L 31.640625 19.433594 Z M 32.179688 18.898438 "/>
<path style=" stroke:none;fill-rule:nonzero;fill:rgb(22.745098%,30.19608%,41.568628%);fill-opacity:1;" d="M 7.375 24.265625 L 7.46875 24.367188 L 7.617188 24.460938 L 7.128906 24.851562 L 6.25 25.148438 L 6.007812 25.4375 L 5.761719 25.34375 L 5.664062 25.242188 L 6.007812 24.953125 L 6.738281 24.5625 L 7.03125 24.367188 L 6.984375 24.5625 L 7.226562 24.367188 L 7.324219 24.367188 Z M 7.375 24.265625 "/>
<path style=" stroke:none;fill-rule:nonzero;fill:rgb(99.215686%,99.215686%,99.215686%);fill-opacity:1;" d="M 37.792969 40.085938 L 37.84375 40.1875 L 37.351562 41.0625 L 37.011719 41.210938 L 36.476562 41.359375 L 36.28125 41.308594 L 36.765625 40.867188 L 37.597656 40.234375 Z M 37.792969 40.085938 "/>
<path style=" stroke:none;fill-rule:nonzero;fill:rgb(99.215686%,99.215686%,99.215686%);fill-opacity:1;" d="M 12.304688 40.136719 L 12.742188 40.429688 L 13.183594 40.773438 L 13.71875 41.257812 L 13.820312 41.308594 L 13.820312 41.40625 L 13.039062 41.210938 L 12.792969 41.113281 L 12.5 40.625 L 12.304688 40.234375 Z M 12.304688 40.136719 "/>
<path style=" stroke:none;fill-rule:nonzero;fill:rgb(19.607843%,24.313726%,35.686275%);fill-opacity:1;" d="M 31.007812 15.917969 L 31.203125 15.917969 L 31.6875 16.84375 L 31.6875 17.140625 L 31.882812 17.578125 L 31.882812 17.675781 L 31.789062 17.675781 L 31.738281 17.871094 L 31.738281 17.773438 L 31.640625 17.773438 L 31.445312 17.1875 L 31.007812 16.257812 L 31.054688 16.0625 Z M 31.007812 15.917969 "/>
<path style=" stroke:none;fill-rule:nonzero;fill:rgb(19.215687%,25.098041%,36.078432%);fill-opacity:1;" d="M 22.804688 12.742188 L 23.144531 12.742188 L 23.046875 12.9375 L 22.851562 12.988281 L 22.851562 13.085938 L 21.972656 13.429688 L 21.484375 13.671875 L 21.386719 13.671875 L 21.4375 13.429688 L 21.679688 13.183594 L 22.363281 12.890625 Z M 22.804688 12.742188 "/>
<path style=" stroke:none;fill-rule:nonzero;fill:rgb(41.960785%,49.019608%,60.392159%);fill-opacity:1;" d="M 12.109375 34.570312 L 12.648438 34.8125 L 13.132812 35.058594 L 13.28125 35.109375 L 13.28125 35.203125 L 12.304688 35.398438 L 12.109375 35.398438 Z M 12.109375 34.570312 "/>
<path style=" stroke:none;fill-rule:nonzero;fill:rgb(42.352942%,49.411765%,60.784316%);fill-opacity:1;" d="M 27.390625 32.519531 L 27.585938 32.570312 L 27.734375 32.910156 L 27.832031 33.398438 L 28.027344 33.640625 L 27.882812 34.082031 L 27.734375 34.082031 L 27.6875 34.863281 L 27.636719 34.863281 L 27.585938 33.789062 L 27.492188 33.300781 L 27.492188 33.007812 L 27.441406 32.960938 Z M 27.390625 32.519531 "/>
<path style=" stroke:none;fill-rule:nonzero;fill:rgb(19.607843%,23.529412%,34.509805%);fill-opacity:1;" d="M 18.3125 16.796875 L 18.40625 16.796875 L 18.359375 17.285156 L 18.117188 18.066406 L 18.015625 18.261719 L 17.921875 18.210938 L 17.921875 18.066406 L 17.726562 18.164062 L 17.625 18.066406 L 17.53125 17.871094 L 17.382812 17.871094 L 17.335938 17.578125 L 17.53125 17.675781 L 17.773438 17.871094 L 17.96875 17.285156 L 18.117188 17.140625 L 18.261719 17.140625 Z M 18.3125 16.796875 "/>
<path style=" stroke:none;fill-rule:nonzero;fill:rgb(18.431373%,22.352941%,33.333334%);fill-opacity:1;" d="M 26.074219 28.417969 L 26.171875 28.417969 L 26.171875 29.054688 L 26.125 30.175781 L 26.074219 30.273438 L 24.21875 30.175781 L 24.367188 30.078125 L 25.78125 30.03125 L 25.976562 29.980469 Z M 26.074219 28.417969 "/>
<path style=" stroke:none;fill-rule:nonzero;fill:rgb(21.176471%,27.058825%,38.431373%);fill-opacity:1;" d="M 18.601562 15.96875 L 18.796875 16.015625 L 18.75 16.210938 L 18.847656 16.257812 L 18.457031 17.039062 L 18.359375 17.140625 L 18.40625 16.796875 L 18.3125 16.796875 L 18.261719 17.140625 L 18.015625 17.234375 L 18.164062 16.796875 Z M 18.601562 15.96875 "/>
<path style=" stroke:none;fill-rule:nonzero;fill:rgb(17.647059%,21.176471%,32.549021%);fill-opacity:1;" d="M 25 12.5 L 25.929688 12.5 L 26.414062 12.597656 L 26.5625 12.695312 L 26.5625 12.792969 L 26.320312 12.84375 L 25.828125 12.84375 L 25.292969 12.742188 L 25.292969 12.648438 L 25 12.546875 Z M 25 12.5 "/>
<path style=" stroke:none;fill-rule:nonzero;fill:rgb(19.607843%,23.921569%,34.901962%);fill-opacity:1;" d="M 30.125 14.648438 L 30.46875 14.941406 L 30.90625 15.476562 L 31.054688 15.722656 L 31.152344 15.917969 L 31.054688 16.015625 L 31.054688 16.164062 L 30.957031 16.210938 L 30.566406 15.625 L 30.617188 15.332031 L 30.617188 15.234375 L 30.421875 15.28125 L 30.421875 15.039062 L 30.320312 14.992188 L 30.078125 14.746094 Z M 30.125 14.648438 "/>
<path style=" stroke:none;fill-rule:nonzero;fill:rgb(42.352942%,49.411765%,60.784316%);fill-opacity:1;" d="M 21.386719 35.644531 L 21.972656 35.695312 L 22.3125 35.789062 L 22.3125 36.375 L 22.265625 36.375 L 22.265625 35.984375 L 22.117188 36.035156 L 21.4375 36.085938 Z M 21.386719 35.644531 "/>
<path style=" stroke:none;fill-rule:nonzero;fill:rgb(52.156866%,58.039218%,67.450982%);fill-opacity:1;" d="M 37.890625 34.570312 L 38.039062 34.570312 L 38.039062 35.203125 L 37.207031 35.058594 L 37.15625 34.960938 L 37.742188 34.667969 Z M 37.890625 34.570312 "/>
<path style=" stroke:none;fill-rule:nonzero;fill:rgb(22.352941%,27.843139%,39.215687%);fill-opacity:1;" d="M 26.414062 12.597656 L 26.855469 12.695312 L 27.34375 12.84375 L 27.195312 13.039062 L 27.296875 13.039062 L 27.296875 13.132812 L 27.441406 13.183594 L 27.148438 13.132812 L 26.074219 12.890625 L 26.074219 12.84375 L 26.5625 12.792969 L 26.5625 12.695312 L 26.414062 12.648438 Z M 26.414062 12.597656 "/>
<path style=" stroke:none;fill-rule:nonzero;fill:rgb(20.392157%,24.313726%,35.686275%);fill-opacity:1;" d="M 29.785156 14.355469 L 29.980469 14.453125 L 30.125 14.601562 L 30.125 14.796875 L 30.371094 14.992188 L 30.46875 15.234375 L 30.617188 15.234375 L 30.664062 15.527344 L 30.515625 15.578125 L 30.226562 15.1875 L 29.6875 14.601562 L 29.734375 14.453125 L 29.835938 14.453125 Z M 29.785156 14.355469 "/>
<path style=" stroke:none;fill-rule:nonzero;fill:rgb(42.352942%,49.411765%,60.784316%);fill-opacity:1;" d="M 11.230469 35.253906 L 11.28125 35.398438 L 11.28125 35.644531 L 10.109375 35.890625 L 10.15625 35.742188 Z M 11.230469 35.253906 "/>
<path style=" stroke:none;fill-rule:nonzero;fill:rgb(42.352942%,49.411765%,60.784316%);fill-opacity:1;" d="M 21.679688 33.59375 L 21.828125 33.640625 L 21.921875 33.984375 L 22.023438 34.277344 L 21.484375 34.277344 L 21.386719 33.835938 L 21.582031 33.742188 Z M 21.679688 33.59375 "/>
<path style=" stroke:none;fill-rule:nonzero;fill:rgb(18.82353%,23.137255%,34.117648%);fill-opacity:1;" d="M 27.246094 12.890625 L 27.636719 12.9375 L 28.125 13.183594 L 28.078125 13.328125 L 27.78125 13.378906 L 27.441406 13.234375 L 27.441406 13.132812 L 27.296875 13.132812 L 27.296875 13.039062 L 27.195312 13.039062 Z M 27.246094 12.890625 "/>
<path style=" stroke:none;fill-rule:nonzero;fill:rgb(42.352942%,49.411765%,60.784316%);fill-opacity:1;" d="M 38.867188 35.984375 L 39.355469 36.035156 L 39.796875 36.132812 L 39.601562 36.230469 L 38.867188 36.476562 Z M 38.867188 35.984375 "/>
<path style=" stroke:none;fill-rule:nonzero;fill:rgb(24.313726%,29.019609%,40.000001%);fill-opacity:1;" d="M 23.09375 30.371094 L 24.707031 30.421875 L 24.65625 30.566406 L 23.289062 30.566406 L 23.046875 30.515625 Z M 23.09375 30.371094 "/>
<path style=" stroke:none;fill-rule:nonzero;fill:rgb(17.647059%,21.568628%,32.549021%);fill-opacity:1;" d="M 22.804688 12.742188 L 23.144531 12.742188 L 23.046875 12.9375 L 22.851562 12.988281 L 22.851562 13.085938 L 22.558594 13.085938 L 22.3125 13.183594 L 22.070312 13.132812 L 22.117188 12.988281 Z M 22.804688 12.742188 "/>
<path style=" stroke:none;fill-rule:nonzero;fill:rgb(18.431373%,22.352941%,33.333334%);fill-opacity:1;" d="M 7.375 20.3125 L 8.15625 20.3125 L 8.105469 20.410156 L 8.59375 20.507812 L 8.59375 20.65625 L 8.105469 20.65625 L 7.421875 20.410156 Z M 7.375 20.3125 "/>
<path style=" stroke:none;fill-rule:nonzero;fill:rgb(40.392157%,47.450981%,58.823532%);fill-opacity:1;" d="M 38.867188 35.15625 L 39.109375 35.203125 L 39.992188 35.59375 L 39.992188 35.695312 L 39.0625 35.5 L 38.867188 35.449219 Z M 38.867188 35.15625 "/>
<path style=" stroke:none;fill-rule:nonzero;fill:rgb(26.666668%,35.294119%,46.666667%);fill-opacity:1;" d="M 24.460938 12.453125 L 25.390625 12.453125 L 25.195312 12.546875 L 25.390625 12.648438 L 25.539062 12.792969 L 24.757812 12.742188 L 24.5625 12.597656 L 24.609375 12.5 Z M 24.460938 12.453125 "/>
<path style=" stroke:none;fill-rule:nonzero;fill:rgb(17.647059%,23.137255%,34.509805%);fill-opacity:1;" d="M 20.019531 14.453125 L 20.164062 14.5 L 20.070312 14.695312 L 19.628906 15.136719 L 19.433594 15.085938 L 19.53125 14.84375 L 19.773438 14.601562 Z M 20.019531 14.453125 "/>
<path style=" stroke:none;fill-rule:nonzero;fill:rgb(18.431373%,23.137255%,34.117648%);fill-opacity:1;" d="M 31.007812 15.917969 L 31.203125 15.917969 L 31.296875 16.40625 L 31.347656 16.601562 L 31.445312 16.554688 L 31.59375 16.84375 L 31.59375 16.945312 L 31.492188 16.945312 L 31.398438 16.796875 L 31.296875 16.84375 L 31.007812 16.257812 L 31.054688 16.0625 Z M 31.007812 15.917969 "/>
<path style=" stroke:none;fill-rule:nonzero;fill:rgb(18.431373%,23.529412%,34.509805%);fill-opacity:1;" d="M 23.976562 12.5 L 24.609375 12.5 L 24.609375 12.597656 L 24.804688 12.695312 L 24.757812 12.742188 L 24.023438 12.742188 L 23.828125 12.648438 Z M 23.976562 12.5 "/>
<path style=" stroke:none;fill-rule:nonzero;fill:rgb(19.215687%,23.529412%,34.901962%);fill-opacity:1;" d="M 20.3125 14.0625 L 20.507812 14.109375 L 20.460938 14.210938 L 20.410156 14.40625 L 20.164062 14.601562 L 20.117188 14.5 L 19.824219 14.601562 L 19.679688 14.601562 L 19.96875 14.355469 L 20.214844 14.109375 Z M 20.3125 14.0625 "/>
<path style=" stroke:none;fill-rule:nonzero;fill:rgb(27.843139%,34.117648%,45.490196%);fill-opacity:1;" d="M 9.277344 8.054688 L 9.375 8.105469 L 8.546875 8.9375 L 8.203125 9.328125 L 7.960938 9.570312 L 7.859375 9.523438 L 8.25 9.132812 L 8.59375 8.742188 Z M 9.277344 8.054688 "/>
<path style=" stroke:none;fill-rule:nonzero;fill:rgb(27.058825%,33.333334%,44.705883%);fill-opacity:1;" d="M 26.074219 28.417969 L 26.171875 28.417969 L 26.171875 29.054688 L 26.125 30.175781 L 26.074219 30.175781 L 26.023438 29.539062 L 26.023438 28.953125 Z M 26.074219 28.417969 "/>
<path style=" stroke:none;fill-rule:nonzero;fill:rgb(22.745098%,30.980393%,42.352942%);fill-opacity:1;" d="M 21.972656 13.039062 L 22.117188 13.085938 L 22.3125 13.132812 L 22.558594 13.039062 L 22.753906 13.085938 L 22.609375 13.183594 L 21.972656 13.429688 L 21.777344 13.476562 L 21.726562 13.378906 L 21.921875 13.328125 L 21.875 13.085938 Z M 21.972656 13.039062 "/>
<path style=" stroke:none;fill-rule:nonzero;fill:rgb(20%,23.921569%,34.901962%);fill-opacity:1;" d="M 22.804688 31.492188 L 23.046875 31.542969 L 23.09375 31.984375 L 22.851562 32.03125 L 22.753906 31.933594 L 22.753906 31.59375 Z M 22.804688 31.492188 "/>
<path style=" stroke:none;fill-rule:nonzero;fill:rgb(24.705882%,31.37255%,42.745098%);fill-opacity:1;" d="M 19.628906 14.648438 L 19.628906 14.796875 L 19.53125 14.84375 Z M 19.433594 14.890625 L 19.484375 15.085938 L 19.578125 15.136719 L 19.53125 15.234375 L 19.289062 15.1875 L 19.335938 15.332031 L 19.238281 15.429688 L 18.898438 15.625 L 18.992188 15.382812 Z M 19.433594 14.890625 "/>
<path style=" stroke:none;fill-rule:nonzero;fill:rgb(20.784314%,25.098041%,36.470589%);fill-opacity:1;" d="M 24.953125 31.492188 L 25.148438 31.640625 L 25.148438 31.984375 L 25.097656 32.03125 L 24.851562 32.03125 L 24.851562 31.59375 Z M 24.953125 31.492188 "/>
<path style=" stroke:none;fill-rule:nonzero;fill:rgb(24.313726%,32.156864%,43.137255%);fill-opacity:1;" d="M 26.414062 12.597656 L 26.855469 12.695312 L 27.050781 12.792969 L 26.5625 12.9375 L 26.074219 12.890625 L 26.074219 12.84375 L 26.5625 12.792969 L 26.5625 12.695312 L 26.414062 12.648438 Z M 26.414062 12.597656 "/>
<path style=" stroke:none;fill-rule:nonzero;fill:rgb(99.215686%,99.215686%,99.215686%);fill-opacity:1;" d="M 22.507812 28.5625 L 22.898438 28.5625 L 22.898438 28.664062 L 22.609375 28.757812 L 22.609375 29.101562 L 22.414062 29.101562 L 22.414062 28.613281 Z M 22.507812 28.5625 "/>
<path style=" stroke:none;fill-rule:nonzero;fill:rgb(23.921569%,31.37255%,42.745098%);fill-opacity:1;" d="M 22.3125 28.46875 L 22.898438 28.46875 L 22.898438 28.5625 L 22.414062 28.613281 L 22.363281 29.589844 L 22.3125 29.589844 Z M 22.3125 28.46875 "/>
<path style=" stroke:none;fill-rule:nonzero;fill:rgb(21.960784%,29.019609%,40.000001%);fill-opacity:1;" d="M 21.972656 33.351562 L 22.023438 33.351562 L 22.070312 34.03125 L 22.117188 34.226562 L 22.023438 34.277344 L 21.828125 33.9375 L 21.777344 33.640625 L 21.679688 33.59375 L 21.679688 33.496094 L 21.875 33.546875 L 21.921875 33.640625 Z M 21.972656 33.351562 "/>
<path style=" stroke:none;fill-rule:nonzero;fill:rgb(21.568628%,25.882354%,36.862746%);fill-opacity:1;" d="M 31.59375 19.96875 L 31.6875 20.164062 L 31.789062 20.164062 L 31.835938 20.070312 L 31.789062 20.3125 L 31.738281 20.410156 L 31.640625 20.410156 L 31.59375 20.554688 L 31.445312 20.554688 L 31.492188 20.117188 Z M 31.59375 19.96875 "/>
<path style=" stroke:none;fill-rule:nonzero;fill:rgb(99.215686%,99.215686%,99.215686%);fill-opacity:1;" d="M 12.109375 34.570312 L 12.5 34.765625 L 12.5 34.914062 L 12.109375 35.007812 Z M 12.109375 34.570312 "/>
<path style=" stroke:none;fill-rule:nonzero;fill:rgb(25.490198%,34.117648%,45.490196%);fill-opacity:1;" d="M 30.125 14.648438 L 30.46875 14.941406 L 30.761719 15.332031 L 30.664062 15.527344 L 30.617188 15.234375 L 30.421875 15.28125 L 30.421875 15.039062 L 30.320312 14.992188 L 30.078125 14.746094 Z M 30.125 14.648438 "/>
<path style=" stroke:none;fill-rule:nonzero;fill:rgb(20.392157%,26.274511%,37.64706%);fill-opacity:1;" d="M 7.324219 24.023438 L 7.421875 24.023438 L 7.46875 24.171875 L 7.273438 24.460938 L 7.179688 24.460938 L 6.984375 24.5625 L 7.078125 24.265625 L 7.226562 24.21875 Z M 7.324219 24.023438 "/>
<path style=" stroke:none;fill-rule:nonzero;fill:rgb(23.921569%,32.156864%,43.529412%);fill-opacity:1;" d="M 31.203125 16.015625 L 31.347656 16.164062 L 31.6875 16.894531 L 31.542969 16.84375 L 31.398438 16.601562 L 31.296875 16.648438 L 31.25 16.210938 L 31.152344 16.164062 Z M 31.203125 16.015625 "/>
<path style=" stroke:none;fill-rule:nonzero;fill:rgb(16.078432%,20%,30.980393%);fill-opacity:1;" d="M 22.167969 30.03125 L 22.609375 30.03125 L 23 30.078125 L 23.046875 30.175781 L 22.167969 30.175781 Z M 22.167969 30.03125 "/>
<path style=" stroke:none;fill-rule:nonzero;fill:rgb(16.078432%,20.392157%,31.37255%);fill-opacity:1;" d="M 20.019531 14.453125 L 20.164062 14.5 L 20.070312 14.695312 L 19.921875 14.84375 L 19.679688 14.746094 L 19.679688 14.648438 Z M 20.019531 14.453125 "/>
<path style=" stroke:none;fill-rule:nonzero;fill:rgb(22.352941%,29.411766%,40.392157%);fill-opacity:1;" d="M 7.375 20.3125 L 7.960938 20.3125 L 7.960938 20.554688 L 7.519531 20.460938 Z M 7.375 20.3125 "/>
<path style=" stroke:none;fill-rule:nonzero;fill:rgb(99.215686%,99.215686%,99.215686%);fill-opacity:1;" d="M 27.390625 32.519531 L 27.585938 32.570312 L 27.734375 32.960938 L 27.441406 32.960938 Z M 27.390625 32.519531 "/>
<path style=" stroke:none;fill-rule:nonzero;fill:rgb(25.098041%,33.333334%,44.705883%);fill-opacity:1;" d="M 30.617188 15.527344 L 30.90625 15.773438 L 30.957031 15.867188 L 31.101562 16.113281 L 30.957031 16.210938 L 30.566406 15.625 Z M 30.617188 15.527344 "/>
<path style=" stroke:none;fill-rule:nonzero;fill:rgb(99.215686%,99.215686%,99.215686%);fill-opacity:1;" d="M 22.558594 33.742188 L 22.804688 33.742188 L 22.804688 33.886719 L 22.703125 33.9375 L 22.3125 33.9375 L 22.265625 33.789062 Z M 22.558594 33.742188 "/>
<path style=" stroke:none;fill-rule:nonzero;fill:rgb(25.490198%,30.19608%,41.568628%);fill-opacity:1;" d="M 10.5 18.898438 L 10.742188 18.992188 L 10.695312 19.140625 L 10.007812 19.09375 L 10.007812 19.042969 L 10.5 18.992188 Z M 10.5 18.898438 "/>
<path style=" stroke:none;fill-rule:nonzero;fill:rgb(24.705882%,31.37255%,42.745098%);fill-opacity:1;" d="M 28.125 13.183594 L 28.417969 13.28125 L 28.5625 13.378906 L 28.5625 13.476562 L 28.320312 13.476562 L 28.273438 13.378906 L 28.125 13.378906 L 28.027344 13.476562 L 27.882812 13.378906 L 28.078125 13.328125 Z M 28.125 13.183594 "/>
<path style=" stroke:none;fill-rule:nonzero;fill:rgb(42.352942%,49.411765%,60.784316%);fill-opacity:1;" d="M 39.40625 35.351562 L 39.992188 35.59375 L 39.992188 35.695312 L 39.304688 35.546875 Z M 39.40625 35.351562 "/>
<path style=" stroke:none;fill-rule:nonzero;fill:rgb(20.392157%,27.450982%,38.82353%);fill-opacity:1;" d="M 22.804688 28.027344 L 23.09375 28.027344 L 23.09375 28.078125 L 23.339844 28.125 L 23.339844 28.222656 L 22.753906 28.222656 Z M 22.804688 28.027344 "/>
<path style=" stroke:none;fill-rule:nonzero;fill:rgb(18.039216%,21.176471%,32.156864%);fill-opacity:1;" d="M 17.335938 17.578125 L 17.53125 17.675781 L 17.726562 17.871094 L 17.726562 18.066406 L 17.820312 18.117188 L 17.675781 18.117188 L 17.578125 17.871094 L 17.429688 17.921875 L 17.335938 17.726562 Z M 17.335938 17.578125 "/>
<path style=" stroke:none;fill-rule:nonzero;fill:rgb(16.470589%,20.392157%,31.37255%);fill-opacity:1;" d="M 29.785156 14.355469 L 29.929688 14.40625 L 30.03125 14.601562 L 29.980469 14.746094 L 29.835938 14.746094 L 29.6875 14.601562 L 29.734375 14.453125 L 29.835938 14.453125 Z M 29.785156 14.355469 "/>
<path style=" stroke:none;fill-rule:nonzero;fill:rgb(18.431373%,23.137255%,34.117648%);fill-opacity:1;" d="M 25.195312 28.027344 L 25.488281 28.027344 L 25.632812 28.125 L 25.632812 28.222656 L 25.148438 28.222656 Z M 25.195312 28.027344 "/>
<path style=" stroke:none;fill-rule:nonzero;fill:rgb(17.254902%,20.392157%,31.37255%);fill-opacity:1;" d="M 31.59375 17.335938 L 31.835938 17.480469 L 31.882812 17.675781 L 31.789062 17.675781 L 31.738281 17.871094 L 31.738281 17.773438 L 31.640625 17.773438 Z M 31.59375 17.335938 "/>
<path style=" stroke:none;fill-rule:nonzero;fill:rgb(23.921569%,30.588236%,41.960785%);fill-opacity:1;" d="M 18.164062 16.796875 L 18.3125 16.796875 L 18.261719 17.140625 L 18.015625 17.234375 Z M 18.164062 16.796875 "/>
<path style=" stroke:none;fill-rule:nonzero;fill:rgb(27.450982%,34.901962%,46.27451%);fill-opacity:1;" d="M 20.3125 14.0625 L 20.359375 14.160156 L 20.070312 14.40625 L 19.96875 14.550781 L 19.679688 14.648438 L 20.164062 14.160156 Z M 20.3125 14.0625 "/>
<path style=" stroke:none;fill-rule:nonzero;fill:rgb(23.921569%,32.156864%,43.529412%);fill-opacity:1;" d="M 21.386719 13.328125 L 21.484375 13.328125 L 21.484375 13.523438 L 21.191406 13.574219 L 21.140625 13.671875 L 20.996094 13.625 L 21.191406 13.429688 Z M 21.386719 13.328125 "/>
<path style=" stroke:none;fill-rule:nonzero;fill:rgb(99.215686%,99.215686%,99.215686%);fill-opacity:1;" d="M 25.242188 33.835938 L 25.683594 33.835938 L 25.632812 34.03125 L 25.242188 33.984375 Z M 25.242188 33.835938 "/>
<path style=" stroke:none;fill-rule:nonzero;fill:rgb(29.411766%,37.64706%,49.019608%);fill-opacity:1;" d="M 36.476562 33.640625 L 36.671875 33.640625 L 36.671875 33.789062 L 37.011719 33.789062 L 37.011719 33.835938 L 36.425781 33.886719 Z M 36.476562 33.640625 "/>
<path style=" stroke:none;fill-rule:nonzero;fill:rgb(23.921569%,30.980393%,42.352942%);fill-opacity:1;" d="M 5.859375 25.046875 L 5.957031 25.195312 L 6.054688 25.242188 L 6.007812 25.4375 L 5.761719 25.34375 L 5.664062 25.242188 Z M 5.859375 25.046875 "/>
<path style=" stroke:none;fill-rule:nonzero;fill:rgb(30.980393%,38.431373%,49.803922%);fill-opacity:1;" d="M 10.15625 20.359375 L 10.546875 20.359375 L 10.351562 20.554688 L 10.058594 20.65625 L 10.15625 20.410156 Z M 10.15625 20.359375 "/>
<path style=" stroke:none;fill-rule:nonzero;fill:rgb(24.705882%,33.333334%,44.705883%);fill-opacity:1;" d="M 18.554688 16.554688 L 18.652344 16.601562 L 18.40625 17.140625 L 18.359375 17.140625 L 18.40625 16.796875 L 18.3125 16.75 Z M 18.554688 16.554688 "/>
<path style=" stroke:none;fill-rule:nonzero;fill:rgb(21.176471%,27.058825%,38.039216%);fill-opacity:1;" d="M 29.929688 14.453125 L 30.125 14.601562 L 30.175781 14.941406 L 30.078125 15.039062 L 29.929688 14.84375 L 29.980469 14.601562 Z M 29.929688 14.453125 "/>
<path style=" stroke:none;fill-rule:nonzero;fill:rgb(18.039216%,22.745098%,33.725491%);fill-opacity:1;" d="M 28.125 13.328125 L 28.367188 13.328125 L 28.367188 13.625 L 28.125 13.523438 Z M 28.367188 13.429688 L 28.5625 13.523438 L 28.367188 13.476562 Z M 28.367188 13.429688 "/>
<path style=" stroke:none;fill-rule:nonzero;fill:rgb(18.82353%,22.745098%,33.725491%);fill-opacity:1;" d="M 13.820312 19.53125 L 13.820312 19.679688 L 13.671875 19.773438 L 13.625 19.96875 L 13.378906 20.070312 L 13.429688 19.875 Z M 13.820312 19.53125 "/>
<path style=" stroke:none;fill-rule:nonzero;fill:rgb(20.392157%,25.490198%,36.862746%);fill-opacity:1;" d="M 21.632812 13.378906 L 21.777344 13.429688 L 21.777344 13.523438 L 21.484375 13.671875 L 21.386719 13.671875 L 21.4375 13.429688 Z M 21.632812 13.378906 "/>
<path style=" stroke:none;fill-rule:nonzero;fill:rgb(18.82353%,22.352941%,33.333334%);fill-opacity:1;" d="M 30.46875 15.234375 L 30.617188 15.234375 L 30.664062 15.527344 L 30.515625 15.578125 L 30.421875 15.429688 Z M 30.46875 15.234375 "/>
<path style=" stroke:none;fill-rule:nonzero;fill:rgb(23.921569%,32.156864%,43.529412%);fill-opacity:1;" d="M 20.75 13.964844 L 20.945312 14.015625 L 20.460938 14.355469 L 20.359375 14.210938 L 20.65625 14.0625 Z M 20.75 13.964844 "/>
<path style=" stroke:none;fill-rule:nonzero;fill:rgb(24.705882%,30.588236%,41.960785%);fill-opacity:1;" d="M 25.734375 6.933594 L 25.828125 6.984375 L 25.292969 7.519531 L 25.292969 7.375 L 25.488281 7.128906 Z M 25.734375 6.933594 "/>
</g>
</svg>
